<?xml version="1.0" standalone="no"?>
<!DOCTYPE svg PUBLIC "-//W3C//DTD SVG 20010904//EN"
 "http://www.w3.org/TR/2001/REC-SVG-20010904/DTD/svg10.dtd">
<svg version="1.0" xmlns="http://www.w3.org/2000/svg"
 width="512.000000pt" height="512.000000pt" viewBox="0 0 512.000000 512.000000"
 preserveAspectRatio="xMidYMid meet">

<g transform="translate(0.000000,512.000000) scale(0.100000,-0.100000)"
fill="#FFFF" stroke="none">
<path d="M805 4748 c-89 -16 -204 -80 -278 -153 -77 -76 -138 -190 -156 -289
-15 -83 -15 -3409 0 -3492 18 -99 79 -213 156 -289 76 -76 190 -137 287 -154
83 -15 3409 -15 3492 0 99 18 213 79 289 156 76 76 137 190 154 287 15 83 15
3409 0 3492 -38 213 -230 405 -443 443 -77 14 -3428 13 -3501 -1z m1851 -1291
c175 -60 169 -43 169 -447 1 -343 5 -374 57 -413 25 -18 27 -18 62 -2 79 38
189 199 355 524 90 176 122 229 143 239 19 9 101 13 290 15 380 2 415 -6 406
-104 -9 -95 -133 -302 -321 -536 -174 -218 -201 -277 -162 -354 10 -19 98
-115 195 -214 225 -230 279 -308 280 -403 0 -100 -30 -114 -270 -123 -186 -8
-352 1 -424 22 -31 8 -82 53 -236 204 -109 106 -207 196 -219 200 -82 26 -140
-73 -156 -265 -10 -122 -12 -127 -53 -142 -58 -20 -329 -16 -426 6 -225 51
-401 152 -582 331 -123 123 -210 234 -341 440 -278 435 -443 755 -443 860 0
68 74 85 384 85 l209 0 35 -37 c22 -24 78 -127 154 -283 163 -336 158 -325
208 -388 78 -97 132 -122 182 -82 46 36 58 88 65 269 11 308 -32 432 -155 448
-23 3 -42 9 -42 14 0 17 64 81 99 99 136 69 390 86 537 37z"/>
</g>
</svg>
