<?xml version="1.0" standalone="no"?>
<!DOCTYPE svg PUBLIC "-//W3C//DTD SVG 20010904//EN"
 "http://www.w3.org/TR/2001/REC-SVG-20010904/DTD/svg10.dtd">
<svg version="1.0" xmlns="http://www.w3.org/2000/svg"
 width="150px" height="170px" viewBox="0 0 611.000000 611.000000"
 preserveAspectRatio="xMidYMid meet">
<!-- 150 170 -->
<g transform="translate(0.000000,611.000000) scale(0.100000,-0.100000)"
fill="#ffff" stroke="none">
<path d="M4313 5653 c-25 -9 -12 -37 37 -85 28 -27 50 -51 50 -54 0 -10 55
-55 100 -81 73 -43 99 -73 100 -113 0 -19 5 -62 11 -95 5 -33 12 -71 14 -85
32 -186 42 -419 19 -427 -6 -2 -23 29 -38 69 -15 40 -49 110 -76 154 -28 45
-50 86 -50 92 0 6 -6 15 -14 19 -7 4 -26 33 -41 63 -47 96 -58 115 -67 118 -4
2 -8 8 -8 14 0 5 -18 45 -39 88 -22 42 -42 99 -46 126 -3 27 -8 59 -11 71 -10
49 -67 72 -77 32 -5 -19 -10 -21 -39 -14 -18 4 -55 9 -81 10 -42 2 -52 8 -87
45 -50 55 -69 44 -33 -18 15 -26 34 -53 43 -59 23 -19 89 -41 141 -48 35 -4
49 -12 62 -34 9 -15 16 -36 16 -47 0 -27 43 -147 55 -156 6 -4 8 -8 4 -8 -4 0
7 -37 23 -82 41 -115 86 -257 94 -296 8 -40 31 -86 50 -102 8 -7 15 -17 15
-22 0 -5 12 -20 26 -33 25 -23 88 -115 79 -115 -2 0 0 -12 6 -27 18 -48 37
-194 38 -296 1 -96 2 -99 36 -144 32 -41 35 -52 35 -110 0 -79 17 -151 41
-178 10 -12 27 -45 38 -75 38 -107 53 -145 63 -157 6 -7 8 -22 5 -33 -3 -11
-1 -20 4 -20 32 0 44 -280 14 -354 -36 -90 -64 -129 -163 -230 -119 -123 -152
-180 -152 -267 0 -61 14 -103 58 -172 32 -50 33 -80 7 -192 -19 -84 -66 -337
-70 -382 -2 -18 -6 -36 -9 -42 -3 -5 -8 -48 -11 -96 l-5 -86 -48 -47 c-84 -82
-100 -117 -179 -392 -9 -30 -22 -68 -28 -85 -7 -16 -16 -48 -20 -70 -9 -52
-60 -202 -96 -283 -27 -60 -40 -75 -133 -154 -25 -21 -30 -33 -30 -74 -1 -47
0 -49 42 -72 25 -14 47 -35 53 -51 5 -14 18 -42 29 -62 11 -20 20 -48 20 -63
0 -46 33 -57 175 -57 131 1 155 7 155 41 0 14 -12 18 -57 23 -72 8 -89 24
-108 112 -9 39 -25 102 -37 141 -25 86 -25 87 74 294 192 401 226 462 319 560
30 31 53 78 69 139 11 40 19 60 41 101 5 8 15 29 24 45 8 17 19 37 24 45 5 8
15 29 21 47 25 67 36 47 48 -86 13 -136 13 -143 -23 -296 -13 -55 -23 -118
-21 -140 6 -67 18 -119 32 -142 8 -12 14 -35 14 -50 0 -15 7 -47 15 -70 8 -23
18 -62 21 -85 4 -24 12 -50 19 -58 7 -8 15 -31 18 -50 7 -47 34 -180 42 -206
5 -15 -5 -42 -30 -88 -27 -50 -35 -76 -33 -104 4 -46 26 -58 120 -65 71 -6
113 -23 150 -60 27 -27 70 -42 153 -56 33 -5 73 -16 89 -24 39 -21 86 -3 86
33 0 13 -13 21 -46 29 -55 14 -99 56 -208 199 -83 109 -108 152 -101 171 3 8
-2 22 -10 31 -24 26 -38 133 -55 405 -13 210 -8 367 14 419 22 53 20 161 -4
248 -17 60 -20 107 -22 287 -1 209 -14 364 -36 445 -9 31 -8 44 4 65 52 91 64
116 64 128 0 7 4 13 8 13 9 0 74 160 91 225 6 22 11 71 11 109 0 69 14 139 34
165 17 22 46 123 46 161 0 19 -7 60 -15 90 -19 71 -19 120 1 148 9 13 18 54
21 96 6 72 6 73 -28 104 -19 18 -50 35 -69 38 -74 12 -97 25 -146 81 l-49 57
-5 104 c-3 57 -2 109 2 116 4 7 26 21 50 30 68 28 73 32 76 54 2 11 -4 34 -12
51 -9 16 -16 43 -16 59 0 21 -10 37 -40 60 -28 23 -41 43 -46 70 -4 20 -11 45
-16 55 -8 15 -65 53 -144 95 -13 7 -24 22 -24 33 0 28 -58 260 -70 281 -6 10
-10 30 -10 45 -1 16 -10 53 -21 83 -11 30 -22 68 -25 84 -3 16 -10 41 -16 55
-5 14 -16 75 -24 135 -8 59 -19 117 -24 127 -6 10 -10 29 -10 44 0 14 -7 28
-15 32 -24 9 -28 -2 -15 -42 10 -31 10 -39 -3 -53 -14 -14 -22 -14 -80 2 -53
15 -66 22 -81 50 -22 42 -78 70 -113 59z"/>
<path d="M3185 4499 c-72 -7 -133 -31 -141 -56 -3 -10 -10 -27 -14 -38 -33
-76 -40 -105 -40 -170 0 -80 17 -126 59 -163 l26 -23 -47 -40 c-42 -36 -46
-43 -41 -73 3 -20 1 -36 -6 -40 -15 -9 -14 -61 1 -86 11 -17 7 -25 -29 -62
-23 -24 -58 -62 -78 -85 -20 -23 -46 -45 -57 -49 -19 -6 -30 -14 -80 -58 -13
-12 -49 -41 -79 -64 -85 -68 -179 -162 -185 -187 -3 -12 -4 -37 -2 -55 3 -30
9 -36 48 -51 103 -40 220 -57 414 -62 226 -6 229 -7 228 -106 0 -33 -6 -79
-13 -103 -6 -24 -13 -54 -15 -68 -10 -58 -17 -76 -52 -121 -20 -26 -44 -57
-52 -69 -8 -12 -22 -32 -31 -44 -17 -23 -52 -106 -44 -106 2 0 0 -11 -5 -24
-9 -24 5 -93 46 -230 18 -63 18 -79 -5 -129 -33 -74 -93 -250 -101 -298 -21
-117 -96 -293 -145 -339 -26 -24 -78 -93 -101 -135 -58 -103 -96 -179 -112
-225 -34 -99 -42 -126 -42 -147 0 -12 -7 -28 -15 -37 -8 -8 -15 -31 -15 -51 0
-20 -5 -46 -11 -57 -6 -12 -18 -50 -25 -86 -13 -62 -43 -133 -99 -230 -14 -24
-28 -67 -31 -97 -6 -48 -4 -54 16 -65 13 -7 57 -12 102 -11 50 1 92 -4 111
-13 50 -22 124 -35 229 -39 90 -4 100 -3 133 20 19 13 35 27 35 31 -1 22 -23
35 -62 37 -23 1 -57 2 -74 3 -35 2 -148 74 -201 128 -22 22 -33 43 -33 63 0
23 97 232 159 341 5 8 26 49 46 90 21 41 50 98 66 125 16 28 33 59 38 70 17
38 77 120 126 173 47 51 94 137 95 174 0 10 9 23 20 30 11 7 20 21 20 30 0 17
35 78 64 110 9 10 22 33 30 52 8 18 19 37 25 40 11 7 85 -134 86 -162 0 -8 8
-19 17 -26 9 -7 21 -31 26 -53 8 -35 6 -47 -19 -92 -41 -74 -85 -206 -98 -291
-13 -91 -14 -240 -3 -378 12 -142 6 -244 -16 -296 -31 -70 -35 -126 -12 -163
l20 -33 112 0 c63 -1 140 -7 173 -15 60 -15 220 -20 249 -9 19 7 22 44 4 45
-64 3 -66 4 -223 103 -45 28 -90 56 -100 62 -11 6 -26 22 -32 35 -17 33 -16
187 2 284 9 44 22 116 30 160 35 199 79 323 136 379 24 24 31 38 29 59 0 1 6
24 14 52 18 58 13 103 -19 196 -13 37 -29 104 -35 150 -35 270 -49 341 -94
463 -22 60 -24 75 -15 119 5 28 19 67 30 86 32 55 84 188 103 267 20 81 18
259 -4 410 -13 91 -13 92 14 145 25 51 32 106 18 141 -4 9 -60 71 -124 138
-133 136 -128 124 -107 277 11 86 19 97 83 114 l39 11 -7 88 c-5 65 -3 95 6
110 12 18 10 23 -16 43 -19 16 -28 32 -28 52 0 37 -21 86 -47 109 -11 10 -23
31 -26 47 -4 16 -12 32 -18 36 -18 12 -135 19 -202 12z m-134 -1049 c10 -6 19
-17 19 -24 0 -8 14 -28 30 -46 17 -18 30 -37 30 -43 0 -6 12 -24 28 -40 25
-27 26 -29 9 -41 -20 -15 -81 -11 -167 10 -30 8 -66 14 -80 14 -14 0 -35 7
-46 15 -13 9 -31 12 -56 8 -30 -4 -38 -2 -38 9 0 9 6 20 13 26 11 9 226 121
235 122 2 0 12 -5 23 -10z"/>
<path d="M1985 4024 c-28 -14 -60 -32 -72 -40 -28 -18 -33 -18 -33 0 0 19 -50
29 -83 17 -14 -6 -33 -24 -42 -41 -15 -30 -15 -33 1 -44 10 -7 14 -18 10 -25
-15 -24 -88 -62 -122 -63 -26 -1 -40 -8 -55 -30 -16 -22 -28 -28 -58 -28 -58
0 -124 -24 -191 -69 -65 -43 -114 -61 -167 -61 -18 0 -56 -6 -85 -14 -29 -7
-64 -13 -78 -12 -14 1 -27 -2 -30 -6 -3 -4 -28 -13 -55 -20 -60 -16 -111 -52
-130 -93 -24 -50 -26 -257 -3 -330 10 -33 25 -89 34 -125 24 -101 74 -251 97
-293 l22 -39 65 4 c62 3 65 2 66 -20 1 -13 -4 -29 -11 -36 -7 -7 -15 -24 -17
-37 -1 -13 -20 -59 -40 -102 -21 -42 -41 -95 -44 -117 -9 -57 4 -141 28 -181
12 -19 23 -39 24 -46 1 -7 11 -25 23 -41 15 -21 21 -46 22 -93 2 -73 -17 -242
-31 -279 -5 -14 -14 -81 -19 -149 -11 -134 -23 -169 -87 -246 -19 -23 -34 -46
-34 -50 0 -5 -6 -16 -13 -24 -25 -30 -65 -146 -72 -211 -4 -36 -11 -72 -15
-81 -5 -8 -12 -40 -15 -70 -4 -30 -13 -72 -20 -94 -7 -22 -16 -64 -19 -94 -11
-98 -41 -177 -98 -263 -28 -41 -24 -102 8 -127 22 -17 41 -21 108 -21 45 0 86
-4 92 -9 20 -18 83 -32 187 -42 88 -7 114 -6 143 6 55 23 42 46 -37 66 -61 16
-147 53 -159 68 -3 4 -31 19 -62 35 l-58 27 0 47 c0 42 21 112 95 312 12 30
43 94 75 153 21 36 30 53 51 96 13 25 42 74 65 109 24 35 46 73 50 85 4 12 18
39 31 60 14 22 22 41 19 44 -2 3 2 26 11 51 16 51 21 75 22 110 1 24 31 32 31
8 0 -7 11 -21 25 -30 31 -20 34 -39 38 -276 3 -179 5 -198 25 -230 12 -19 22
-49 22 -67 0 -17 3 -33 8 -35 4 -1 18 -25 31 -53 13 -27 32 -62 42 -76 10 -14
16 -29 12 -32 -3 -4 1 -26 10 -49 23 -66 38 -185 32 -274 -6 -114 3 -125 103
-125 43 1 154 -1 247 -4 176 -5 229 -1 222 18 -2 6 -25 16 -53 23 -83 20 -190
62 -218 86 -21 16 -81 58 -101 68 -21 11 -87 164 -100 230 -20 103 -27 174
-17 178 6 2 5 13 -3 30 -21 44 -35 402 -17 425 7 8 7 27 1 57 -6 25 -13 59
-16 75 -3 17 -10 33 -15 36 -13 9 -31 165 -23 212 3 20 2 37 -2 37 -5 0 -9 12
-9 28 -2 37 -8 88 -28 213 -17 106 -17 289 0 384 8 49 11 349 4 500 l-5 110
63 7 c105 12 137 46 121 129 -4 24 -8 61 -9 82 0 45 18 49 72 12 50 -34 285
-153 328 -166 26 -8 47 -8 77 0 34 9 42 16 47 41 7 39 -18 114 -56 165 -94
127 -128 182 -126 200 3 21 108 84 140 85 26 0 77 48 93 87 17 40 20 161 6
211 -22 75 -149 182 -217 182 -16 0 -52 -12 -79 -26z m-173 -509 c27 -55 16
-71 -18 -27 -14 18 -32 32 -39 32 -8 0 -17 5 -20 10 -10 16 4 30 31 30 19 0
29 -10 46 -45z m103 -73 c18 -13 89 -142 82 -149 -3 -2 -20 13 -38 33 -19 20
-40 41 -47 48 -26 23 -62 61 -62 66 0 9 54 11 65 2z m-770 -62 c5 -9 -6 -55
-41 -162 -17 -51 -27 -345 -12 -354 14 -9 -2 -24 -25 -24 -12 0 -36 9 -53 19
l-31 19 -1 153 c-1 84 -4 160 -6 168 -3 9 -2 41 2 71 6 49 11 57 47 82 22 15
45 26 50 24 6 -2 19 0 30 5 27 11 33 10 40 -1z"/>
</g>
<g id="g10">
    <text x="300" y="630" fill="#ffff" font-family="'Lucida Handwriting', cursive" font-size="50" font-weight="900" text-anchor="middle">Скульптор вашего тела</text>
</g>
</svg>
