<?xml version="1.0" standalone="no"?>
<!DOCTYPE svg PUBLIC "-//W3C//DTD SVG 20010904//EN"
 "http://www.w3.org/TR/2001/REC-SVG-20010904/DTD/svg10.dtd">
<svg version="1.0" xmlns="http://www.w3.org/2000/svg"
 width="611.000000pt" height="611.000000pt" viewBox="0 0 611.000000 611.000000"
 preserveAspectRatio="xMidYMid meet">

<g transform="translate(0.000000,611.000000) scale(0.100000,-0.100000)"
fill="#000000" stroke="none">
<path d="M4313 5653 c-25 -9 -12 -37 37 -85 28 -27 50 -51 50 -54 0 -10 55
-55 100 -81 73 -43 99 -73 100 -113 0 -19 5 -62 11 -95 5 -33 12 -71 14 -85
32 -186 42 -419 19 -427 -6 -2 -23 29 -38 69 -15 40 -49 110 -76 154 -28 45
-50 86 -50 92 0 6 -6 15 -14 19 -7 4 -26 33 -41 63 -47 96 -58 115 -67 118 -4
2 -8 8 -8 14 0 5 -18 45 -39 88 -22 42 -42 99 -46 126 -3 27 -8 59 -11 71 -10
49 -67 72 -77 32 -5 -19 -10 -21 -39 -14 -18 4 -55 9 -81 10 -42 2 -52 8 -87
45 -50 55 -69 44 -33 -18 15 -26 34 -53 43 -59 23 -19 89 -41 141 -48 35 -4
49 -12 62 -34 9 -15 16 -36 16 -47 0 -27 43 -147 55 -156 6 -4 8 -8 4 -8 -4 0
7 -37 23 -82 41 -115 86 -257 94 -296 8 -40 31 -86 50 -102 8 -7 15 -17 15
-22 0 -5 12 -20 26 -33 25 -23 88 -115 79 -115 -2 0 0 -12 6 -27 18 -48 37
-194 38 -296 1 -99 8 -120 57 -174 7 -7 12 -43 13 -80 1 -105 10 -149 37 -174
13 -12 28 -38 35 -58 6 -20 19 -55 30 -78 10 -24 19 -49 19 -56 0 -7 7 -23 16
-35 9 -13 14 -32 11 -43 -3 -10 -1 -19 4 -19 32 0 43 -286 14 -356 -40 -92
-66 -129 -173 -238 -62 -64 -110 -116 -107 -116 3 0 -1 -14 -10 -30 -43 -83
-36 -169 22 -264 46 -75 46 -138 -2 -296 -7 -25 -18 -79 -24 -120 -6 -41 -13
-86 -16 -100 -4 -14 -8 -44 -10 -67 -2 -23 -6 -46 -9 -52 -3 -5 -8 -48 -11
-96 l-5 -86 -48 -47 c-48 -47 -112 -136 -112 -156 0 -6 -11 -49 -26 -96 -14
-47 -32 -110 -41 -140 -8 -30 -19 -62 -23 -70 -4 -8 -13 -40 -20 -70 -17 -75
-67 -221 -101 -298 -27 -60 -40 -75 -133 -154 -25 -21 -30 -33 -30 -74 -1 -47
0 -49 42 -72 25 -14 47 -35 53 -51 5 -14 18 -42 29 -62 11 -20 20 -48 20 -63
0 -46 33 -57 175 -57 131 1 155 7 155 41 0 14 -12 18 -57 23 -72 8 -89 24
-108 112 -9 39 -25 102 -37 141 -25 86 -25 87 74 294 197 413 228 466 330 571
20 20 39 46 43 58 7 23 40 29 48 9 4 -10 6 -10 6 0 1 6 10 12 21 12 11 0 20 4
20 9 0 12 -49 20 -56 10 -3 -5 -11 -9 -19 -9 -11 0 -11 8 -4 37 10 39 25 77
40 103 5 8 15 29 24 45 8 17 19 37 24 45 5 8 15 29 21 47 25 67 36 47 48 -85
11 -116 6 -222 -12 -250 -11 -19 -34 -159 -31 -192 5 -62 17 -115 31 -137 8
-12 14 -35 14 -50 0 -15 7 -47 15 -70 8 -23 18 -62 21 -85 4 -24 12 -50 19
-58 7 -8 15 -31 18 -50 7 -47 34 -180 42 -206 5 -15 -5 -42 -30 -88 -27 -50
-35 -76 -33 -104 4 -46 26 -58 120 -65 71 -6 113 -23 150 -60 27 -27 70 -42
153 -56 33 -5 73 -16 89 -24 39 -21 86 -3 86 33 0 13 -13 21 -46 29 -55 14
-99 56 -208 199 -83 109 -108 152 -101 171 3 8 -2 22 -10 31 -24 26 -38 133
-55 405 -13 212 -8 367 14 420 23 54 22 145 -3 242 -18 70 -22 115 -23 295 -1
206 -14 361 -36 442 -9 31 -8 44 4 65 52 91 64 116 64 128 0 7 4 13 8 13 9 0
74 160 91 225 6 22 11 71 11 109 0 69 14 139 34 165 17 22 46 123 46 161 0 19
-7 60 -15 90 -19 71 -19 120 1 148 9 13 18 54 21 96 6 72 6 73 -28 104 -19 18
-50 35 -69 38 -74 12 -97 25 -146 81 l-49 57 -5 104 c-3 57 -2 109 2 116 4 7
26 21 50 30 68 28 73 32 76 54 2 11 -4 34 -12 51 -9 16 -16 43 -16 59 0 21
-10 37 -40 60 -28 23 -41 43 -46 70 -4 20 -11 45 -16 55 -8 15 -65 53 -144 95
-13 7 -24 22 -24 33 0 28 -58 260 -70 281 -6 10 -10 30 -10 45 -1 16 -10 53
-21 83 -11 30 -22 68 -25 84 -3 16 -10 41 -16 55 -5 14 -16 75 -24 135 -8 59
-19 117 -24 127 -6 10 -10 29 -10 44 0 14 -7 28 -15 32 -24 9 -28 -2 -15 -42
10 -31 10 -39 -3 -53 -14 -14 -22 -14 -80 2 -53 15 -66 22 -81 50 -22 42 -78
70 -113 59z"/>
<path d="M3185 4499 c-72 -7 -133 -31 -141 -56 -3 -10 -10 -27 -14 -38 -33
-76 -40 -105 -40 -170 0 -80 17 -126 59 -163 l26 -23 -47 -40 c-42 -36 -46
-43 -41 -73 3 -20 1 -36 -6 -40 -15 -9 -14 -61 1 -86 11 -17 7 -25 -29 -62
-23 -24 -58 -62 -78 -85 -20 -23 -46 -45 -57 -49 -19 -6 -30 -14 -80 -58 -13
-12 -49 -41 -79 -64 -85 -68 -179 -162 -185 -187 -3 -12 -4 -37 -2 -55 3 -30
9 -36 48 -51 103 -40 221 -57 413 -62 212 -5 221 -8 230 -77 3 -22 -1 -68 -9
-103 -8 -34 -19 -85 -23 -114 -5 -28 -14 -58 -20 -65 -17 -19 -64 -83 -81
-108 -8 -12 -22 -32 -31 -44 -9 -11 -22 -39 -29 -61 -7 -22 -16 -50 -21 -63
-11 -29 -12 -69 -1 -76 5 -3 14 -31 22 -63 7 -32 19 -77 26 -101 18 -56 18
-75 -5 -125 -33 -74 -93 -250 -101 -298 -21 -117 -96 -293 -145 -339 -26 -24
-78 -93 -101 -135 -58 -103 -96 -179 -112 -225 -34 -99 -42 -126 -42 -147 0
-12 -7 -28 -15 -37 -8 -8 -15 -31 -15 -51 0 -20 -5 -46 -11 -57 -6 -12 -18
-50 -25 -86 -13 -62 -43 -133 -99 -230 -14 -24 -28 -67 -31 -97 -6 -48 -4 -54
16 -65 13 -7 57 -12 102 -11 50 1 92 -4 111 -13 50 -22 124 -35 229 -39 90 -4
100 -3 133 20 19 13 35 27 35 31 -1 22 -23 35 -62 37 -23 1 -57 2 -74 3 -35 2
-148 74 -201 128 -22 22 -33 43 -33 63 0 23 97 232 159 341 5 8 26 49 46 90
21 41 50 98 66 125 16 28 33 59 38 70 17 38 77 120 126 173 47 51 94 137 95
174 0 10 9 23 20 30 11 7 20 21 20 30 0 17 35 78 64 110 9 10 22 33 30 52 8
18 19 37 25 40 12 8 94 -152 85 -165 -2 -4 5 -14 16 -22 11 -7 23 -31 28 -53
8 -34 4 -47 -27 -109 -91 -176 -116 -358 -92 -653 11 -142 5 -245 -17 -296
-31 -70 -35 -126 -12 -163 l20 -33 112 0 c63 -1 140 -7 173 -15 60 -15 220
-20 249 -9 19 7 22 44 4 45 -64 3 -66 4 -223 103 -45 28 -90 56 -100 62 -11 6
-26 22 -32 35 -17 33 -16 187 2 284 9 44 22 116 30 160 35 199 79 323 136 379
50 49 63 88 55 169 -4 39 -17 101 -31 138 -13 37 -29 104 -35 150 -35 270 -49
341 -94 463 -22 60 -24 75 -15 119 5 28 19 67 30 86 32 55 84 188 103 267 20
81 18 259 -4 410 -13 91 -13 92 14 145 25 51 32 106 18 141 -4 9 -60 71 -124
138 -133 136 -128 124 -107 277 11 86 19 97 83 114 l39 11 -7 88 c-5 65 -3 95
6 110 12 18 10 23 -16 43 -19 16 -28 32 -28 52 0 37 -21 86 -47 109 -11 10
-23 31 -26 47 -4 16 -12 32 -18 36 -18 12 -135 19 -202 12z m-133 -1051 c9 -7
24 -30 33 -50 10 -21 24 -38 31 -38 8 0 14 -8 14 -18 0 -10 11 -29 25 -42 30
-28 31 -36 8 -48 -27 -14 -269 24 -296 46 -8 7 -29 9 -50 5 -29 -4 -37 -2 -37
9 0 9 6 20 13 26 13 11 228 121 238 122 3 0 12 -6 21 -12z"/>
<path d="M1905 4151 c-3 -5 -1 -12 5 -16 5 -3 10 1 10 9 0 18 -6 21 -15 7z"/>
<path d="M1990 4033 c-27 -20 -98 -63 -106 -63 -2 0 -4 6 -4 14 0 8 -12 17
-27 20 -52 11 -76 -1 -99 -46 -14 -27 -14 -31 2 -42 10 -7 14 -18 10 -25 -15
-24 -88 -62 -122 -63 -26 -1 -40 -8 -55 -30 -16 -22 -28 -28 -58 -28 -55 0
-128 -25 -177 -60 -62 -44 -103 -59 -186 -66 -40 -4 -77 -10 -83 -14 -5 -4
-37 -13 -70 -20 -33 -7 -74 -19 -92 -26 -17 -8 -38 -14 -47 -14 -25 0 -106
-62 -110 -85 -7 -39 -4 -80 6 -92 6 -7 8 -13 4 -13 -4 0 1 -14 9 -31 9 -17 13
-38 9 -47 -8 -20 -9 -42 -1 -62 5 -13 25 -132 44 -264 3 -24 11 -40 22 -43 12
-3 22 -28 35 -85 10 -44 26 -94 35 -110 15 -28 18 -29 81 -26 62 3 65 2 66
-20 1 -13 -4 -29 -11 -36 -7 -7 -15 -24 -17 -37 -1 -13 -20 -59 -40 -102 -21
-42 -41 -95 -44 -117 -10 -61 4 -145 32 -185 13 -20 24 -41 24 -48 0 -7 9 -18
21 -25 13 -9 19 -20 16 -32 -3 -11 -1 -39 5 -62 12 -55 -4 -119 -30 -115 -9 1
-17 -2 -17 -8 0 -5 8 -9 19 -7 17 2 18 -3 12 -69 -4 -39 -11 -81 -16 -93 -5
-11 -14 -77 -19 -145 -11 -133 -23 -167 -85 -245 -67 -84 -110 -187 -121 -286
-4 -36 -11 -73 -16 -82 -5 -10 -11 -39 -13 -65 -2 -27 -11 -77 -20 -112 -8
-36 -13 -68 -10 -73 3 -5 1 -14 -4 -21 -5 -7 -13 -31 -17 -55 -7 -43 -52 -144
-87 -194 -26 -38 -24 -93 7 -123 22 -23 32 -25 108 -25 45 0 87 -4 93 -9 20
-18 83 -32 187 -42 88 -7 114 -6 143 6 55 23 42 46 -37 66 -61 16 -147 53
-159 68 -3 4 -31 19 -62 35 l-58 27 0 47 c0 42 21 112 95 312 12 30 48 104 74
150 5 8 21 42 36 75 15 33 31 67 36 75 5 8 17 31 27 50 9 19 40 69 68 110 28
41 51 82 51 90 0 8 6 35 13 60 16 53 16 57 18 93 2 27 32 40 32 13 0 -7 11
-21 25 -30 31 -20 34 -39 38 -276 3 -179 5 -198 25 -230 12 -19 22 -49 22 -67
0 -17 3 -33 8 -35 4 -2 18 -25 31 -53 13 -27 32 -62 42 -76 10 -14 16 -29 12
-32 -3 -4 1 -26 10 -49 23 -66 38 -185 32 -274 -6 -114 3 -125 103 -125 43 1
154 -1 247 -4 176 -5 229 -1 222 18 -2 6 -25 16 -53 23 -83 20 -190 62 -218
86 -21 16 -81 58 -101 68 -21 11 -87 164 -100 230 -20 103 -27 174 -17 178 6
2 5 13 -3 30 -22 45 -36 409 -16 422 8 4 8 20 0 56 -5 27 -13 63 -16 79 -3 17
-10 33 -15 36 -13 9 -31 165 -23 212 3 20 2 37 -2 37 -5 0 -9 12 -9 28 -2 37
-8 88 -28 213 -17 106 -17 291 0 384 8 48 11 347 4 500 l-5 110 63 7 c105 12
137 46 121 129 -4 24 -8 61 -9 82 0 46 18 49 74 10 49 -33 302 -159 337 -168
15 -4 44 -2 67 4 34 10 40 16 45 44 6 42 -17 111 -55 162 -94 127 -128 182
-126 200 3 21 107 84 139 85 26 0 68 38 89 81 22 42 28 158 11 216 -13 44 -66
108 -121 146 -58 39 -133 48 -170 20z m-178 -518 c27 -55 16 -71 -18 -27 -14
18 -32 32 -39 32 -8 0 -17 5 -20 10 -10 16 4 30 31 30 19 0 29 -10 46 -45z
m103 -73 c18 -13 89 -142 82 -149 -3 -2 -20 13 -38 33 -19 20 -40 41 -47 48
-26 23 -62 61 -62 66 0 9 54 11 65 2z m-772 -78 c-3 -34 -30 -130 -43 -154 -7
-14 -13 -52 -13 -85 1 -33 -3 -66 -9 -72 -6 -7 -7 -25 -3 -40 4 -16 9 -54 11
-85 2 -32 5 -63 6 -70 5 -21 -44 -20 -79 1 l-32 20 4 242 c2 133 6 243 7 245
2 1 30 5 62 8 32 2 61 7 64 11 11 11 27 -2 25 -21z"/>
<path d="M1085 3300 c-3 -5 1 -10 9 -10 9 0 16 5 16 10 0 6 -4 10 -9 10 -6 0
-13 -4 -16 -10z"/>
<path d="M1046 3207 c-16 -12 -16 -13 3 -14 22 -2 37 12 23 21 -5 3 -17 0 -26
-7z"/>
<path d="M1030 3150 c-8 -5 -11 -12 -7 -17 5 -4 11 -3 15 3 4 6 14 14 22 17
13 5 13 5 0 6 -8 0 -22 -3 -30 -9z"/>
<path d="M1100 3760 c-13 -8 -12 -10 3 -10 9 0 17 5 17 10 0 12 -1 12 -20 0z"/>
<path d="M772 3693 c-15 -6 -6 -23 14 -23 8 0 14 7 14 15 0 15 -6 17 -28 8z"/>
<path d="M935 3660 c-3 -5 1 -10 9 -10 9 0 16 5 16 10 0 6 -4 10 -9 10 -6 0
-13 -4 -16 -10z"/>
<path d="M970 3666 c0 -9 30 -14 35 -6 4 6 -3 10 -14 10 -12 0 -21 -2 -21 -4z"/>
<path d="M2658 3623 c7 -3 16 -2 19 1 4 3 -2 6 -13 5 -11 0 -14 -3 -6 -6z"/>
<path d="M4704 3538 c-5 -7 -2 -9 9 -5 9 3 18 1 21 -6 2 -7 5 -4 5 6 1 19 -24
23 -35 5z"/>
<path d="M4751 3534 c0 -11 3 -14 6 -6 3 7 2 16 -1 19 -3 4 -6 -2 -5 -13z"/>
<path d="M4771 3534 c0 -11 3 -14 6 -6 3 7 2 16 -1 19 -3 4 -6 -2 -5 -13z"/>
<path d="M698 3493 c7 -3 16 -2 19 1 4 3 -2 6 -13 5 -11 0 -14 -3 -6 -6z"/>
<path d="M4755 3420 c-3 -5 1 -10 10 -10 9 0 13 5 10 10 -3 6 -8 10 -10 10 -2
0 -7 -4 -10 -10z"/>
<path d="M203 3203 c9 -2 25 -2 35 0 9 3 1 5 -18 5 -19 0 -27 -2 -17 -5z"/>
<path d="M480 3065 c0 -8 2 -15 4 -15 2 0 6 7 10 15 3 8 1 15 -4 15 -6 0 -10
-7 -10 -15z"/>
<path d="M560 3035 c0 -8 7 -15 15 -15 8 0 15 4 15 9 0 5 -7 11 -15 15 -9 3
-15 0 -15 -9z"/>
<path d="M455 2940 c-3 -5 1 -10 9 -10 9 0 16 5 16 10 0 6 -4 10 -9 10 -6 0
-13 -4 -16 -10z"/>
<path d="M770 2940 c-13 -8 -12 -10 3 -10 9 0 17 5 17 10 0 12 -1 12 -20 0z"/>
<path d="M669 2901 c12 -8 51 -4 51 5 0 2 -15 4 -32 4 -23 0 -29 -3 -19 -9z"/>
<path d="M2978 2898 c9 -9 15 -9 24 0 9 9 7 12 -12 12 -19 0 -21 -3 -12 -12z"/>
<path d="M775 2432 c-19 -14 -35 -51 -25 -57 15 -9 32 5 26 21 -3 8 1 17 9 20
8 4 15 10 15 15 0 11 -11 11 -25 1z"/>
<path d="M918 2149 c-7 -5 -26 -9 -43 -9 -37 0 -109 -19 -101 -27 8 -8 216 29
216 39 0 9 -55 7 -72 -3z"/>
<path d="M488 2133 c7 -3 16 -2 19 1 4 3 -2 6 -13 5 -11 0 -14 -3 -6 -6z"/>
<path d="M668 2093 c7 -3 16 -2 19 1 4 3 -2 6 -13 5 -11 0 -14 -3 -6 -6z"/>
<path d="M586 2074 c-5 -12 -18 -15 -63 -12 -32 2 -60 -1 -63 -7 -3 -6 17 -11
48 -13 40 -2 61 2 87 18 40 25 43 30 16 30 -10 0 -22 -7 -25 -16z"/>
<path d="M943 2067 c-17 -7 -34 -15 -38 -18 -11 -12 45 -20 64 -9 11 5 26 7
34 4 13 -5 34 12 25 21 -11 11 -57 12 -85 2z"/>
<path d="M793 2033 c-7 -2 -13 -8 -13 -13 0 -7 11 -7 65 0 6 1 1 5 -10 10 -23
10 -26 10 -42 3z"/>
<path d="M880 1965 c0 -8 2 -15 4 -15 2 0 6 7 10 15 3 8 1 15 -4 15 -6 0 -10
-7 -10 -15z"/>
<path d="M4450 1970 c0 -5 7 -10 15 -10 8 0 15 5 15 10 0 6 -7 10 -15 10 -8 0
-15 -4 -15 -10z"/>
<path d="M688 1943 c6 -2 18 -2 25 0 6 3 1 5 -13 5 -14 0 -19 -2 -12 -5z"/>
<path d="M4310 1935 c-7 -9 -10 -19 -6 -23 4 -4 12 1 17 11 8 13 21 17 55 15
24 0 47 2 51 5 3 4 -19 7 -49 7 -38 0 -60 -5 -68 -15z"/>
<path d="M4395 1821 c-3 -5 -1 -12 5 -16 5 -3 10 1 10 9 0 18 -6 21 -15 7z"/>
<path d="M4450 1820 c0 -5 5 -10 11 -10 5 0 7 5 4 10 -3 6 -8 10 -11 10 -2 0
-4 -4 -4 -10z"/>
<path d="M4222 1801 c-11 -6 -10 -10 4 -15 20 -8 32 0 18 14 -5 5 -15 5 -22 1z"/>
<path d="M4178 1783 c7 -3 16 -2 19 1 4 3 -2 6 -13 5 -11 0 -14 -3 -6 -6z"/>
<path d="M3251 1694 c0 -11 3 -14 6 -6 3 7 2 16 -1 19 -3 4 -6 -2 -5 -13z"/>
<path d="M3202 1640 c0 -14 2 -19 5 -12 2 6 2 18 0 25 -3 6 -5 1 -5 -13z"/>
<path d="M3220 1646 c0 -9 5 -16 10 -16 6 0 10 4 10 9 0 6 -4 13 -10 16 -5 3
-10 -1 -10 -9z"/>
<path d="M870 1638 c0 -13 7 -18 28 -17 21 1 22 2 7 6 -11 3 -23 10 -27 17 -5
7 -8 5 -8 -6z"/>
<path d="M3250 1640 c0 -6 7 -10 15 -10 8 0 15 2 15 4 0 2 -7 6 -15 10 -8 3
-15 1 -15 -4z"/>
<path d="M690 1626 c0 -10 28 -13 41 -5 10 6 7 9 -13 9 -16 0 -28 -2 -28 -4z"/>
<path d="M875 1590 c3 -5 8 -10 11 -10 2 0 4 5 4 10 0 6 -5 10 -11 10 -5 0 -7
-4 -4 -10z"/>
<path d="M4238 1543 c7 -3 16 -2 19 1 4 3 -2 6 -13 5 -11 0 -14 -3 -6 -6z"/>
<path d="M4275 1520 c-3 -5 -1 -10 4 -10 6 0 11 5 11 10 0 6 -2 10 -4 10 -3 0
-8 -4 -11 -10z"/>
<path d="M613 1493 c9 -2 23 -2 30 0 6 3 -1 5 -18 5 -16 0 -22 -2 -12 -5z"/>
<path d="M460 1475 c0 -8 5 -15 10 -15 6 0 10 7 10 15 0 8 -4 15 -10 15 -5 0
-10 -7 -10 -15z"/>
<path d="M565 1460 c3 -5 8 -10 11 -10 2 0 4 5 4 10 0 6 -5 10 -11 10 -5 0 -7
-4 -4 -10z"/>
<path d="M844 1439 c-7 -11 6 -15 50 -14 22 0 41 5 43 10 4 12 -85 16 -93 4z"/>
<path d="M3185 1439 c-16 -6 -14 -8 13 -8 33 -1 41 4 20 12 -7 2 -22 1 -33 -4z"/>
<path d="M4660 1390 c0 -5 7 -10 16 -10 8 0 12 5 9 10 -3 6 -10 10 -16 10 -5
0 -9 -4 -9 -10z"/>
<path d="M428 122 c-16 -2 -28 -8 -28 -13 0 -13 47 -11 55 2 9 14 5 15 -27 11z"/>
<path d="M437 59 c7 -7 15 -10 18 -7 3 3 -2 9 -12 12 -14 6 -15 5 -6 -5z"/>
</g>
</svg>
