<?xml version="1.0" standalone="no"?>
<!DOCTYPE svg PUBLIC "-//W3C//DTD SVG 20010904//EN"
 "http://www.w3.org/TR/2001/REC-SVG-20010904/DTD/svg10.dtd">
<svg version="1.0" xmlns="http://www.w3.org/2000/svg"
 width="611.000000pt" height="611.000000pt" viewBox="0 0 611.000000 611.000000"
 preserveAspectRatio="xMidYMid meet">

<g transform="translate(0.000000,611.000000) scale(0.100000,-0.100000)"
fill="#000000" stroke="none">
<path d="M2440 6104 c0 -3 7 -21 16 -40 13 -27 21 -33 37 -28 12 4 17 2 13 -4
-3 -5 4 -22 15 -36 12 -15 24 -38 28 -52 6 -22 13 -27 48 -30 46 -4 62 8 41
33 -9 12 -9 15 0 9 6 -4 12 -2 12 3 0 6 0 14 1 19 0 4 -10 9 -23 12 -19 5 -22
11 -20 38 3 23 -1 32 -12 32 -8 0 -23 11 -34 25 -17 21 -28 25 -71 25 -28 0
-51 -3 -51 -6z"/>
<path d="M2690 6064 c0 -25 -5 -54 -10 -65 -9 -15 -7 -21 5 -25 8 -3 15 -12
15 -20 0 -7 11 -16 25 -20 14 -3 25 -10 25 -15 0 -5 7 -9 15 -9 8 0 15 5 15
10 0 6 -7 13 -15 16 -17 7 -21 34 -5 34 6 0 10 9 10 19 0 11 7 27 16 36 13 13
14 18 3 31 -11 14 -10 19 10 35 l23 19 -66 0 -66 0 0 -46z"/>
<path d="M2355 6070 c-3 -5 6 -32 21 -60 26 -49 36 -62 32 -38 -2 7 7 14 19
16 19 3 21 6 11 22 -9 14 -16 16 -25 8 -10 -8 -17 -2 -28 26 -16 38 -20 42
-30 26z"/>
<path d="M2936 5881 c-4 -5 -1 -22 4 -37 l11 -27 15 21 c14 20 14 24 0 37 -17
17 -23 18 -30 6z"/>
<path d="M2902 5803 c-8 -14 -9 -24 -2 -28 12 -7 24 18 18 37 -3 8 -9 5 -16
-9z"/>
<path d="M2630 5714 c0 -8 5 -12 10 -9 6 4 8 11 5 16 -9 14 -15 11 -15 -7z"/>
<path d="M4320 5636 c0 -2 15 -21 33 -42 70 -81 126 -130 180 -158 63 -33 72
-49 82 -141 3 -32 11 -63 18 -67 6 -4 9 -10 5 -13 -3 -3 -2 -23 3 -43 4 -20
11 -84 14 -142 3 -58 8 -133 11 -167 7 -78 -4 -153 -22 -153 -12 0 -54 79 -54
102 0 11 -102 184 -129 220 -12 14 -21 30 -21 35 0 4 -9 19 -20 33 -11 14 -20
33 -20 42 0 9 -4 18 -9 20 -20 7 -128 234 -135 283 -12 90 -17 104 -37 110
-13 4 -28 0 -39 -10 -14 -13 -27 -15 -47 -10 -15 4 -54 9 -86 12 -48 4 -56 2
-51 -10 7 -20 76 -47 119 -47 64 0 83 -14 90 -67 4 -26 13 -58 21 -70 8 -12
14 -33 14 -46 0 -12 4 -27 9 -32 4 -6 16 -35 26 -65 10 -30 28 -83 41 -118 13
-34 24 -70 24 -80 0 -9 9 -41 20 -70 11 -29 20 -59 20 -68 0 -29 53 -128 90
-169 82 -89 120 -219 124 -422 3 -123 9 -147 53 -191 8 -9 13 -39 13 -84 0
-82 14 -141 45 -183 12 -16 31 -55 43 -85 11 -30 30 -80 42 -110 12 -30 23
-59 24 -65 1 -5 9 -30 16 -55 8 -27 13 -96 13 -172 -1 -126 -1 -127 -39 -204
-31 -62 -60 -100 -142 -184 -112 -113 -138 -157 -148 -244 -7 -61 3 -93 58
-189 33 -56 33 -71 -5 -242 -30 -140 -59 -294 -59 -315 0 -8 -4 -40 -9 -70 -5
-30 -12 -82 -14 -114 -5 -55 -9 -64 -51 -106 -70 -70 -97 -117 -128 -226 -15
-54 -37 -130 -48 -169 -50 -175 -98 -320 -136 -418 -23 -58 -38 -78 -99 -134
-69 -62 -73 -67 -73 -108 0 -41 3 -45 41 -67 43 -24 63 -56 99 -163 24 -71 40
-77 185 -70 65 4 123 9 127 11 4 3 8 14 8 25 0 16 -7 19 -42 19 -83 0 -106 28
-129 160 -6 30 -16 72 -24 93 -32 83 -23 109 181 522 91 184 113 222 184 304
55 64 83 106 90 135 18 70 41 129 71 178 16 26 31 58 35 72 5 23 42 71 49 64
2 -2 6 -32 10 -68 3 -36 10 -93 15 -128 5 -35 5 -75 0 -90 -4 -15 -18 -71 -30
-125 -25 -108 -24 -218 3 -279 9 -18 17 -49 20 -68 5 -37 43 -170 58 -205 5
-11 13 -40 19 -65 50 -240 49 -228 9 -287 -36 -52 -44 -113 -18 -138 10 -10
45 -19 95 -24 83 -8 126 -25 158 -60 21 -23 85 -46 166 -60 30 -5 69 -15 87
-22 26 -10 34 -10 47 0 24 20 20 51 -6 51 -39 0 -83 35 -159 126 -119 142
-169 214 -169 243 0 15 -5 32 -10 37 -28 28 -60 334 -60 582 0 178 3 218 16
245 24 46 22 164 -4 259 -17 61 -21 98 -18 175 4 148 -11 429 -29 511 l-15 72
56 108 c93 178 122 264 130 382 5 84 23 180 35 180 9 0 49 131 49 162 0 12 -7
45 -15 72 -19 64 -19 139 1 177 8 17 17 55 19 86 4 52 2 58 -29 89 -22 22 -53
39 -94 50 -66 19 -79 28 -137 98 l-38 47 -2 105 c-3 119 3 131 75 153 21 6 42
16 46 23 4 6 -2 45 -12 86 -16 62 -24 79 -46 91 -25 15 -58 73 -58 104 0 20
-31 48 -103 92 l-64 40 -17 70 c-9 39 -19 81 -22 95 -3 14 -8 32 -11 40 -3 8
-7 28 -9 44 -2 16 -8 34 -13 40 -5 6 -13 29 -17 51 -4 22 -18 63 -31 92 -12
30 -23 63 -23 75 0 30 -22 98 -31 98 -5 0 -8 25 -6 55 2 61 -12 82 -44 62 -27
-17 -37 2 -12 21 13 9 25 33 28 52 5 28 4 32 -5 18 -6 -10 -18 -18 -25 -18 -8
0 -15 -4 -15 -10 0 -5 -6 -10 -14 -10 -8 0 -17 -8 -19 -17 -4 -14 -5 -12 -6 5
0 12 5 22 12 22 8 0 7 4 -3 10 -8 5 -22 7 -31 5 -9 -3 -22 1 -29 10 -7 8 -19
15 -26 15 -7 0 -22 12 -31 28 -26 39 -55 61 -80 62 -13 0 -23 -2 -23 -4z"/>
<path d="M3137 4489 c-59 -14 -76 -26 -96 -72 -37 -84 -43 -107 -44 -180 -2
-78 9 -112 51 -158 28 -32 21 -52 -27 -84 -26 -17 -31 -26 -31 -62 0 -23 -4
-45 -10 -48 -5 -3 -10 -17 -10 -30 0 -13 5 -27 10 -30 6 -3 10 -14 10 -23 0
-25 -161 -186 -266 -265 -102 -78 -215 -182 -232 -214 -19 -34 -15 -101 6
-111 9 -5 67 -22 127 -38 109 -28 155 -31 406 -33 70 -1 89 -4 106 -20 29 -28
37 -97 19 -173 -8 -35 -18 -81 -21 -103 -8 -46 -32 -90 -87 -156 -45 -55 -85
-139 -93 -194 -6 -38 3 -80 49 -243 13 -47 13 -57 0 -89 -35 -83 -114 -318
-114 -338 0 -70 -91 -275 -152 -342 -42 -45 -69 -83 -94 -128 -6 -11 -29 -54
-52 -95 -44 -81 -75 -168 -112 -315 -4 -16 -15 -52 -23 -80 -9 -27 -23 -81
-32 -119 -18 -78 -38 -127 -72 -173 -45 -61 -66 -157 -43 -193 7 -11 30 -15
97 -16 62 0 105 -6 148 -21 41 -15 98 -23 180 -28 117 -6 121 -6 150 18 44 36
24 54 -68 59 -68 3 -76 6 -152 59 -44 31 -90 70 -102 88 -35 52 -36 50 161
436 131 254 176 328 249 406 44 48 69 85 86 130 14 35 33 75 43 88 10 13 18
28 18 33 0 5 18 36 40 70 23 33 48 74 56 89 8 16 20 29 27 29 12 0 88 -135 87
-155 0 -6 9 -18 19 -27 10 -9 22 -34 26 -55 5 -33 0 -52 -34 -119 -22 -44 -51
-122 -65 -172 -31 -108 -37 -259 -22 -534 9 -157 8 -169 -12 -220 -63 -161
-32 -214 117 -201 50 4 93 1 144 -11 85 -20 278 -19 284 1 3 7 -8 15 -24 18
-62 14 -111 39 -228 115 -33 22 -67 43 -75 47 -19 9 -50 43 -51 57 0 6 -3 25
-6 41 -6 41 14 240 37 355 48 236 92 362 145 410 15 14 36 45 48 69 18 39 19
51 10 110 -6 36 -22 104 -35 151 -24 79 -31 117 -59 325 -12 89 -37 190 -68
278 -24 70 -20 130 15 197 56 110 90 202 115 309 13 61 7 213 -17 368 -8 53
-14 97 -14 99 0 1 6 9 13 16 18 18 47 94 47 121 -1 39 -34 81 -200 252 -27 28
-50 61 -51 75 -2 14 0 66 5 115 9 97 20 120 66 130 16 3 33 12 38 18 6 7 11
59 13 117 4 98 3 106 -18 128 -15 14 -23 34 -23 56 0 19 -10 47 -25 67 -14 19
-33 52 -44 75 -16 35 -25 42 -58 47 -52 9 -160 7 -206 -4z m-91 -1037 c6 -4
23 -25 37 -47 15 -22 42 -62 61 -90 58 -82 34 -88 -184 -43 -52 11 -114 22
-137 25 -24 3 -43 10 -43 16 0 13 40 57 52 57 5 0 50 20 100 45 99 49 98 48
114 37z"/>
<path d="M2003 4033 c-15 -7 -41 -22 -58 -33 -49 -32 -53 -33 -76 -11 -35 32
-91 13 -110 -37 -6 -16 -6 -29 2 -38 9 -11 8 -19 -7 -35 -27 -30 -88 -59 -123
-59 -21 0 -32 -6 -36 -20 -8 -25 -37 -41 -67 -37 -40 7 -131 -24 -180 -59 -56
-41 -82 -51 -173 -63 -38 -5 -113 -21 -165 -36 -52 -14 -109 -30 -126 -34 -18
-5 -50 -23 -73 -41 -37 -30 -41 -38 -41 -76 0 -24 7 -63 15 -88 8 -24 15 -64
14 -88 0 -23 4 -74 10 -113 7 -38 13 -83 15 -100 11 -82 20 -117 37 -128 10
-8 25 -42 35 -83 9 -38 26 -86 36 -108 l20 -39 59 7 c70 7 80 -4 55 -55 -9
-18 -16 -38 -16 -45 0 -7 -16 -47 -36 -88 -38 -81 -53 -149 -47 -216 4 -41 48
-137 78 -170 26 -28 20 -240 -9 -362 -8 -35 -18 -103 -21 -153 -9 -136 -21
-172 -81 -250 -74 -97 -113 -193 -129 -314 -3 -28 -11 -65 -16 -83 -5 -18 -9
-46 -9 -63 0 -16 -7 -48 -15 -70 -8 -22 -14 -58 -15 -80 0 -23 -4 -45 -9 -50
-5 -6 -14 -34 -20 -64 -6 -30 -32 -91 -56 -137 -50 -93 -53 -111 -25 -146 17
-23 28 -26 110 -30 49 -3 96 -11 104 -17 38 -32 262 -53 320 -31 38 14 32 37
-11 49 -21 6 -42 11 -48 11 -5 0 -23 7 -40 16 -16 9 -69 36 -117 60 -48 25
-93 54 -99 65 -17 33 -3 95 56 252 52 138 194 432 248 512 15 22 39 58 53 79
14 21 28 53 31 69 3 17 9 42 15 56 5 14 12 40 14 56 9 56 12 58 47 23 19 -18
37 -42 41 -53 4 -11 11 -112 15 -225 6 -161 11 -212 24 -237 9 -18 17 -42 17
-54 0 -12 18 -55 41 -96 56 -105 55 -102 69 -158 26 -102 32 -153 31 -255 -2
-147 -7 -142 165 -148 285 -10 454 1 352 23 -100 22 -274 112 -333 172 -27 28
-73 133 -93 215 -29 113 -57 627 -36 648 13 13 5 60 -26 147 -18 51 -24 98
-36 253 -2 36 -7 97 -10 137 -6 72 -6 72 22 85 16 7 43 27 60 45 l30 32 -35 3
c-19 2 -37 9 -39 17 -3 8 0 11 7 7 7 -5 11 5 11 28 0 25 4 36 15 36 8 0 15 9
15 20 0 11 -4 20 -10 20 -5 0 -10 -5 -10 -11 0 -5 -4 -8 -9 -4 -5 3 -12 1 -15
-4 -8 -13 -48 -2 -63 17 -21 26 -16 44 10 36 12 -5 34 -9 50 -9 15 -1 30 -5
34 -8 9 -10 55 -8 71 1 9 6 6 12 -12 21 -13 8 -26 22 -29 32 -4 15 -10 17 -35
10 -16 -5 -39 -14 -50 -20 -32 -17 -60 -13 -72 10 -9 16 -7 32 9 72 43 109 48
233 25 573 -8 104 -6 106 67 110 61 3 107 27 115 61 4 14 3 53 -2 87 -17 114
-7 118 116 46 47 -27 89 -50 93 -50 5 0 46 -19 90 -42 67 -34 93 -42 140 -42
41 -1 60 3 67 14 26 41 -3 123 -85 238 -25 35 -45 67 -45 72 0 4 -6 10 -14 13
-7 3 -18 19 -24 36 -10 27 -8 33 18 55 17 13 56 34 87 46 101 37 143 96 143
200 0 85 -22 146 -72 197 -23 23 -46 43 -52 43 -5 0 -18 7 -28 17 -26 23 -101
33 -135 16z m-206 -495 c6 -13 14 -31 17 -41 5 -15 3 -16 -14 -7 -11 6 -20 15
-20 20 0 6 -9 10 -19 10 -22 0 -35 15 -26 30 12 19 51 11 62 -12z m119 -96 c6
-4 14 -14 17 -22 4 -8 20 -39 37 -67 16 -29 26 -53 21 -53 -4 0 -27 20 -50 45
-23 25 -45 45 -49 45 -4 0 -13 10 -21 21 -11 18 -11 23 1 30 16 11 30 11 44 1z
m-772 -70 c3 -5 -1 -20 -8 -34 -7 -14 -16 -40 -20 -59 -12 -65 -21 -80 -41
-72 -18 6 -20 -8 -2 -26 9 -10 9 -15 0 -18 -9 -3 -8 -13 4 -38 14 -30 15 -40
3 -74 -7 -23 -9 -44 -4 -52 5 -8 9 -39 10 -70 0 -31 4 -61 8 -67 18 -30 -69
-25 -97 6 -16 17 -16 29 -8 449 l1 52 53 4 c28 2 62 4 74 5 12 1 24 -2 27 -6z
m414 -1223 c-2 -6 -8 -10 -13 -10 -5 0 -11 4 -13 10 -2 6 4 11 13 11 9 0 15
-5 13 -11z m27 1 c3 -5 1 -10 -4 -10 -6 0 -11 5 -11 10 0 6 2 10 4 10 3 0 8
-4 11 -10z"/>
<path d="M1085 3300 c-3 -5 1 -10 9 -10 9 0 16 5 16 10 0 6 -4 10 -9 10 -6 0
-13 -4 -16 -10z"/>
<path d="M1030 3150 c-9 -6 -10 -10 -3 -10 6 0 15 5 18 10 8 12 4 12 -15 0z"/>
<path d="M164 2485 c-4 -8 -13 -15 -21 -15 -24 0 -8 -25 17 -26 28 -2 65 37
47 48 -19 12 -37 9 -43 -7z"/>
<path d="M140 2419 c0 -5 5 -7 10 -4 6 3 10 8 10 11 0 2 -4 4 -10 4 -5 0 -10
-5 -10 -11z"/>
<path d="M1715 2220 c3 -5 13 -10 21 -10 8 0 12 5 9 10 -3 6 -13 10 -21 10 -8
0 -12 -4 -9 -10z"/>
<path d="M1680 2095 c-10 -12 -10 -15 3 -15 8 0 20 7 27 15 10 12 10 15 -3 15
-8 0 -20 -7 -27 -15z"/>
</g>
</svg>
