<svg class="img-fluid" id="outputsvg" xmlns="http://www.w3.org/2000/svg" style="transform: matrix(0.3, 0, 0, 0.3, -1.22727, 4.67325); transform-origin: 50% 50%; cursor: move; max-height: none; transition: transform 200ms ease-in-out;" width="200" height="200" viewBox="0 0 6110 6110"><g id="l1dRCFW2qIh1zmbS7NhmUuS" fill="rgb(53,59,49)" style="transform: none;"><g style="transform: none;"><path id="pCag6f6lb" d="M985 5850 c-52 -4 -112 -16 -143 -29 -36 -14 -74 -21 -123 -21 -61 0 -73 -3 -94 -25 -21 -20 -25 -34 -25 -80 0 -48 6 -67 44 -133 32 -55 51 -104 66 -172 12 -52 27 -122 35 -155 7 -33 21 -103 30 -155 35 -202 55 -253 154 -395 52 -73 63 -111 76 -260 3 -38 13 -108 21 -155 9 -47 17 -123 17 -170 1 -84 1 -85 -42 -149 -24 -35 -48 -83 -53 -105 -10 -43 -2 -187 11 -215 5 -9 16 -30 25 -48 9 -18 28 -61 41 -97 l25 -66 -54 0 c-47 0 -57 -4 -75 -27 -12 -14 -24 -38 -27 -52 -9 -50 -36 -136 -46 -148 -23 -29 -58 -197 -68 -334 -4 -58 -13 -115 -19 -127 -6 -11 -11 -47 -11 -79 0 -54 3 -62 34 -92 18 -18 49 -36 67 -41 19 -4 70 -18 114 -30 44 -11 120 -28 168 -36 102 -17 144 -32 195 -73 43 -34 127 -61 189 -61 37 0 45 -4 53 -25 7 -19 17 -25 41 -25 19 0 52 -13 81 -31 46 -30 48 -33 48 -79 0 -65 13 -74 99 -68 59 4 73 2 107 -18 53 -32 156 -34 217 -3 58 30 114 89 132 139 20 56 20 231 1 268 -21 41 -66 78 -111 92 -22 7 -59 23 -83 37 -43 25 -45 34 -11 63 11 10 94 132 121 178 23 39 28 59 28 118 0 84 0 84 -96 84 -57 0 -79 -6 -182 -54 -65 -29 -143 -70 -174 -90 -32 -20 -59 -36 -62 -36 -2 0 -2 36 1 79 3 43 3 90 0 103 -8 31 -64 58 -121 58 -69 0 -70 3 -56 215 16 227 10 339 -23 433 -23 67 -25 116 -6 128 5 3 9 20 9 39 0 19 4 36 9 39 14 9 23 72 26 181 6 231 22 379 46 436 24 55 24 56 20 274 -2 103 16 335 35 451 9 56 30 125 53 180 38 87 40 90 115 141 65 45 241 123 276 123 7 0 10 15 8 38 l-3 37 -275 -3 c-228 -2 -278 -5 -290 -18 -12 -11 -15 -44 -16 -147 -1 -87 -7 -154 -18 -195 -9 -35 -16 -70 -16 -77 0 -8 -15 -40 -34 -72 -19 -32 -44 -90 -56 -128 -13 -39 -28 -76 -34 -84 -6 -8 -13 -97 -16 -230 -6 -218 -12 -252 -47 -283 -19 -17 -19 -16 -32 60 -14 87 -35 141 -80 206 -64 92 -211 397 -270 561 -13 33 -29 75 -37 93 -19 44 -18 86 4 104 32 28 207 111 267 128 58 16 60 18 63 52 2 22 -3 39 -12 47 -20 17 -116 21 -231 11z m91 -2766 c1 -88 7 -172 13 -188 6 -16 16 -49 22 -75 5 -25 12 -54 15 -65 5 -16 2 -17 -37 -11 -24 4 -54 13 -66 21 -23 14 -23 18 -23 225 l0 210 27 25 c14 13 31 23 37 21 7 -2 11 -62 12 -163z"></path><path id="poIXTdbH6" d="M5360 5844 c-14 -7 -39 -14 -56 -14 -51 0 -128 -28 -175 -63 -54 -42 -97 -57 -161 -57 -39 0 -54 -5 -75 -26 -23 -23 -25 -31 -21 -84 3 -43 12 -70 33 -102 18 -27 28 -54 27 -73 -2 -28 -33 -166 -52 -230 -15 -49 -57 -194 -79 -275 -30 -105 -28 -219 5 -355 23 -99 25 -114 15 -188 -6 -44 -11 -85 -11 -91 0 -6 -14 14 -32 44 -62 110 -68 127 -92 232 -3 14 -39 65 -78 111 -82 96 -141 206 -332 623 l-53 117 18 56 c9 31 25 87 33 125 21 91 43 114 110 118 l51 3 0 50 0 50 -100 8 c-170 13 -265 -5 -265 -52 0 -10 -15 -52 -34 -92 -27 -60 -40 -77 -69 -91 -29 -14 -36 -24 -42 -57 -13 -79 1 -115 62 -163 60 -46 87 -83 120 -168 21 -52 97 -287 128 -395 64 -225 85 -281 131 -337 25 -32 50 -58 55 -58 17 0 49 -65 49 -101 0 -20 4 -60 9 -90 5 -30 15 -85 20 -124 6 -38 27 -152 47 -251 l36 -181 -41 -81 c-39 -77 -41 -86 -41 -169 0 -64 6 -99 19 -128 10 -22 69 -94 131 -159 154 -163 188 -243 174 -411 -10 -117 -75 -313 -136 -407 -29 -45 -48 -122 -48 -194 0 -66 -3 -76 -29 -106 -28 -33 -29 -34 -34 -193 -3 -98 -11 -181 -21 -213 -21 -72 -64 -160 -88 -176 -53 -38 -96 -126 -149 -310 -11 -39 -26 -81 -33 -95 -8 -14 -21 -48 -29 -76 -19 -64 -36 -111 -53 -153 -8 -18 -14 -50 -14 -71 0 -50 -21 -68 -90 -77 -80 -10 -92 -18 -88 -62 l3 -37 123 -2 c122 -1 123 -1 133 24 5 13 9 42 9 64 0 30 19 76 76 187 42 81 96 179 120 218 24 40 44 76 44 82 0 6 18 38 40 71 22 33 49 85 61 115 11 31 23 56 26 56 15 0 -18 -309 -47 -445 -11 -49 -22 -107 -25 -128 -5 -34 -14 -43 -75 -82 -37 -24 -81 -60 -97 -81 -15 -20 -40 -51 -55 -69 -19 -23 -28 -44 -28 -69 0 -35 1 -36 39 -36 33 0 44 6 69 35 47 58 91 76 162 68 59 -6 60 -5 60 19 0 13 4 28 10 34 5 5 12 39 16 74 7 86 30 181 59 255 13 33 32 110 41 170 10 61 26 129 36 153 10 24 18 57 18 73 0 22 8 34 38 53 20 13 49 35 64 49 15 14 35 27 44 29 18 3 22 10 50 77 10 25 28 54 41 65 30 29 63 121 63 176 l0 46 -60 27 -60 28 0 83 0 84 45 60 c45 60 76 79 157 96 15 4 43 20 63 37 34 30 35 33 35 105 0 41 -7 94 -16 120 -10 30 -14 62 -10 88 18 126 18 205 0 263 -10 32 -24 68 -32 80 -7 12 -20 77 -27 145 -18 164 -28 195 -137 415 l-40 82 16 116 c11 77 16 190 16 332 0 186 3 226 21 296 17 67 20 100 15 181 -3 55 -11 105 -18 113 -18 23 -22 183 -9 393 20 308 46 416 122 518 107 144 220 262 251 262 36 0 48 12 48 49 0 20 -5 42 -12 49 -16 16 -107 14 -138 -4z"></path><path id="p8FBduf9e" d="M2650 5819 c-47 -4 -111 -17 -142 -28 -41 -15 -81 -21 -138 -21 -79 0 -81 -1 -91 -27 -14 -36 -5 -143 16 -182 8 -17 28 -49 44 -73 39 -58 55 -107 125 -374 34 -127 91 -273 126 -324 10 -14 27 -44 39 -67 11 -23 47 -74 80 -112 62 -74 130 -212 151 -306 15 -63 97 -317 120 -368 17 -38 17 -40 -8 -110 -18 -50 -27 -100 -30 -165 -6 -118 8 -157 98 -277 69 -92 78 -113 100 -240 15 -88 12 -113 -21 -138 -24 -17 -48 -20 -220 -24 -161 -4 -213 -9 -304 -30 -60 -14 -116 -30 -122 -35 -13 -11 -18 -132 -7 -162 8 -20 197 -185 277 -241 34 -24 96 -79 138 -122 l76 -78 7 -100 c6 -94 8 -102 35 -127 l29 -26 -24 -49 c-35 -71 -33 -209 4 -313 27 -74 27 -75 77 -92 53 -17 215 -23 289 -10 33 6 41 12 47 36 5 16 17 38 27 50 29 32 42 61 42 96 0 23 9 40 31 61 28 26 30 33 24 67 -3 20 -10 79 -13 129 l-7 93 -45 24 c-36 19 -46 30 -48 52 -1 16 -7 54 -13 85 -13 65 -6 86 46 134 18 17 69 69 114 117 l81 87 0 73 c0 62 -4 79 -25 111 -25 36 -26 39 -14 110 6 39 14 139 16 220 6 185 -8 255 -85 421 -62 133 -70 188 -40 256 35 75 42 109 73 350 9 63 30 162 47 220 41 139 49 260 20 316 -11 21 -32 50 -47 64 -15 14 -38 46 -51 72 -46 91 -112 396 -121 558 -5 108 -4 117 16 142 12 15 48 43 79 62 31 18 92 55 134 80 42 26 93 50 113 53 35 6 36 7 33 47 l-3 41 -122 3 c-83 2 -143 -2 -188 -13 -37 -8 -110 -15 -165 -15 -133 0 -145 -10 -144 -112 0 -56 7 -89 28 -143 28 -69 29 -71 20 -205 -4 -74 -7 -207 -5 -295 3 -182 26 -291 87 -420 19 -40 34 -76 34 -81 0 -6 -15 -41 -34 -80 -18 -38 -41 -86 -51 -107 l-17 -37 -31 47 c-57 87 -71 115 -150 283 -14 30 -47 78 -72 105 -82 88 -90 101 -283 476 -56 108 -110 219 -121 247 l-20 51 40 38 c21 21 47 42 57 48 10 5 34 22 54 37 35 28 109 48 174 48 34 0 34 0 34 49 0 46 -2 50 -34 65 -36 17 -99 19 -246 5z m493 -2975 c4 -4 -2 -19 -13 -34 -11 -16 -20 -31 -20 -35 0 -4 -16 -29 -36 -56 l-35 -48 -100 51 c-55 28 -102 55 -104 59 -3 4 48 19 112 34 65 15 123 28 128 30 18 6 61 5 68 -1z"></path></g></g><g id="l2RhvcZ6r2kZQs8IgMQfgjJ" fill="none" stroke="rgb(162,155,129)" stroke-width="10" style="transform: none;"><g style="transform: none;"><path id="pT0wq3LfP" d="M0 3055 l0 -3055 3055 0 3055 0 0 3055 0 3055 -3055 0 -3055 0 0 -3055z m1188 2753 c17 -15 6 -23 -51 -37 -55 -13 -259 -114 -279 -138 -17 -20 -14 -106 6 -153 8 -19 24 -62 36 -95 61 -166 207 -469 271 -561 45 -66 66 -120 80 -209 7 -44 18 -87 26 -95 11 -12 18 -9 49 20 20 19 41 46 47 60 6 14 13 120 17 241 3 133 10 222 16 230 6 8 21 45 34 84 12 38 37 96 56 128 19 32 34 64 34 72 0 8 7 40 16 72 11 37 17 107 19 196 2 103 6 142 16 152 19 18 493 34 503 16 4 -6 2 -11 -4 -11 -35 0 -211 -78 -276 -123 -75 -51 -77 -54 -115 -141 -67 -155 -97 -433 -87 -813 0 -24 -9 -66 -22 -95 -23 -53 -37 -185 -46 -428 -5 -121 -12 -178 -25 -186 -5 -3 -9 -20 -9 -38 0 -17 -4 -36 -8 -42 -5 -5 -14 -27 -20 -50 -11 -36 -9 -48 13 -103 42 -103 50 -187 37 -383 -20 -294 -20 -298 55 -298 53 0 112 -27 118 -55 3 -11 4 -58 3 -105 -3 -82 -2 -85 20 -88 14 -2 51 14 95 41 103 64 290 147 331 147 57 0 66 -8 66 -54 0 -26 -10 -58 -28 -88 -31 -53 -110 -167 -129 -186 -23 -24 -34 -52 -28 -72 7 -23 71 -62 130 -80 45 -14 90 -51 111 -92 19 -36 18 -154 -1 -208 -28 -79 -135 -160 -211 -160 -33 0 -81 22 -157 73 -16 10 -21 9 -34 -11 -10 -14 -26 -22 -43 -22 -39 0 -53 21 -45 69 6 39 6 40 -47 75 -34 23 -64 36 -86 36 -25 0 -35 5 -42 24 -10 27 -40 40 -70 31 -30 -10 -130 23 -171 56 -52 41 -94 56 -196 73 -48 8 -124 25 -168 36 -44 12 -95 26 -114 30 -75 19 -120 95 -90 152 6 12 15 69 19 127 10 137 45 305 68 334 10 12 37 98 46 148 3 14 15 38 27 53 21 26 25 28 76 21 45 -5 54 -4 60 10 7 19 -15 87 -59 185 -16 36 -33 74 -38 85 -14 33 -20 118 -11 156 4 20 28 65 52 100 l44 64 -1 115 c-1 63 -8 153 -17 200 -9 47 -19 117 -22 155 -13 149 -24 187 -76 260 -99 142 -119 193 -154 395 -9 52 -23 122 -30 155 -8 33 -23 103 -35 155 -15 68 -34 117 -66 172 -50 88 -54 119 -20 153 22 22 33 24 93 24 49 -1 83 5 123 21 87 36 283 46 318 18z m4283 6 c10 -13 10 -17 -2 -25 -8 -5 -23 -9 -34 -9 -23 0 -90 -60 -161 -145 -136 -162 -162 -213 -188 -364 -34 -202 -47 -689 -19 -722 6 -8 14 -45 18 -84 6 -56 2 -87 -15 -155 -19 -75 -22 -110 -21 -297 1 -167 -3 -243 -19 -353 l-20 -140 33 -63 c98 -184 145 -316 148 -412 2 -73 17 -151 35 -185 21 -40 44 -118 44 -153 0 -17 -7 -66 -16 -108 -16 -74 -16 -78 5 -144 11 -38 21 -87 21 -111 0 -35 -5 -47 -35 -73 -20 -17 -48 -33 -63 -37 -78 -16 -111 -36 -154 -91 l-43 -56 -5 -102 c-3 -57 -4 -110 -2 -119 2 -9 30 -28 63 -43 35 -16 59 -33 59 -43 0 -29 -42 -125 -63 -146 -13 -11 -31 -40 -41 -65 -28 -67 -32 -74 -50 -77 -9 -2 -29 -15 -44 -29 -15 -14 -44 -36 -64 -49 -30 -19 -38 -31 -38 -53 0 -16 -8 -49 -18 -73 -21 -47 -27 -78 -47 -218 -4 -29 -16 -74 -27 -100 -31 -68 -60 -187 -64 -259 -1 -35 -8 -69 -14 -75 -5 -5 -10 -21 -10 -34 0 -19 -3 -23 -17 -16 -29 13 -101 5 -139 -15 -19 -11 -50 -36 -69 -58 -18 -21 -36 -35 -40 -31 -4 4 5 23 21 41 16 19 42 51 57 71 16 21 60 57 97 81 61 39 70 48 75 82 3 21 14 79 25 128 11 50 24 128 29 175 6 47 13 105 16 130 15 126 3 230 -28 230 -22 0 -32 -14 -54 -77 -12 -34 -40 -90 -62 -123 -23 -34 -41 -66 -41 -72 0 -6 -20 -42 -44 -82 -24 -39 -76 -134 -117 -211 -59 -114 -74 -152 -80 -203 -8 -80 -18 -91 -61 -70 -29 13 -38 13 -76 1 -23 -8 -50 -12 -60 -8 -16 6 -16 7 1 19 9 7 43 16 74 20 71 8 93 27 93 77 0 21 6 53 14 71 17 42 34 89 53 153 8 28 21 62 29 76 7 14 22 56 33 95 53 184 96 272 149 310 24 16 67 104 88 176 10 32 18 115 21 213 5 159 6 160 34 193 26 30 29 40 29 106 0 72 19 149 48 194 28 43 84 175 107 253 29 94 42 261 26 343 -19 103 -50 154 -171 282 -126 133 -149 172 -150 257 0 48 7 71 44 145 l44 88 -13 75 c-8 41 -28 146 -45 234 -31 159 -46 261 -56 364 -6 62 -25 106 -53 121 -11 5 -39 36 -63 67 -42 57 -56 94 -123 328 -33 113 -107 344 -128 395 -33 85 -60 122 -120 168 -56 44 -69 69 -59 118 3 17 16 31 40 42 28 14 41 31 68 91 19 40 34 82 34 92 0 10 12 27 27 36 23 15 46 18 147 15 122 -2 143 -8 133 -36 -5 -12 -20 -16 -55 -16 -64 0 -87 -24 -108 -116 -8 -38 -24 -96 -35 -130 -10 -33 -19 -70 -19 -82 0 -23 49 -136 167 -382 121 -255 148 -301 221 -386 39 -47 75 -98 78 -112 14 -68 46 -153 75 -203 59 -99 82 -130 93 -126 6 2 17 62 25 136 15 130 14 134 -9 234 -42 177 -39 233 25 437 37 116 92 339 100 404 7 51 5 60 -24 104 -45 70 -49 105 -18 136 21 21 36 26 75 26 64 0 107 15 161 57 47 35 124 63 175 63 17 0 42 7 56 14 34 19 65 19 81 0z m-2605 -30 c47 -22 47 -54 0 -54 -65 0 -139 -20 -174 -48 -20 -15 -44 -32 -54 -37 -10 -6 -36 -28 -59 -50 -39 -36 -41 -42 -36 -82 5 -44 76 -194 241 -510 84 -160 114 -206 181 -278 25 -27 58 -75 72 -105 51 -110 84 -176 101 -205 50 -85 94 -145 107 -145 18 0 45 40 80 120 15 36 34 74 41 85 30 49 28 83 -14 168 -22 45 -51 125 -65 177 -29 107 -34 223 -21 520 7 164 7 165 -21 233 -35 88 -37 153 -6 179 19 15 41 18 121 18 55 0 129 7 165 15 76 18 246 17 252 -1 2 -6 -12 -14 -32 -17 -20 -3 -71 -27 -113 -53 -42 -25 -103 -62 -134 -80 -99 -59 -101 -65 -95 -234 4 -100 14 -182 31 -265 57 -263 86 -344 141 -395 75 -69 80 -136 26 -320 -17 -58 -37 -157 -46 -220 -30 -230 -40 -279 -66 -335 -48 -103 -41 -166 34 -330 30 -66 62 -153 71 -192 18 -79 21 -254 6 -318 -5 -22 -12 -77 -16 -121 -6 -77 -5 -83 20 -120 18 -27 26 -52 26 -82 0 -41 -5 -49 -82 -130 -44 -48 -98 -104 -119 -124 -46 -44 -54 -71 -44 -146 21 -168 15 -152 68 -179 l47 -25 0 -87 c0 -47 4 -92 9 -100 7 -10 1 -22 -20 -42 -20 -19 -29 -37 -29 -59 0 -35 -13 -64 -42 -96 -10 -12 -22 -34 -27 -50 -6 -24 -14 -30 -47 -36 -68 -12 -177 -7 -229 10 -50 17 -50 18 -77 92 -33 92 -36 179 -9 242 10 24 26 49 35 57 25 21 19 39 -25 79 l-40 38 -3 97 -2 96 -80 81 c-43 45 -107 101 -141 125 -80 56 -269 221 -277 241 -11 27 -6 91 7 102 6 5 61 22 120 36 89 21 134 26 245 27 187 0 267 10 293 35 32 32 28 108 -12 293 -7 29 -33 75 -78 135 -38 50 -76 112 -86 139 -23 61 -17 146 19 248 32 93 32 105 2 177 -29 71 -100 290 -116 357 -21 94 -89 232 -151 306 -33 38 -69 89 -80 112 -12 23 -29 53 -39 67 -35 51 -92 197 -126 324 -70 267 -86 316 -125 374 -59 87 -77 149 -59 196 9 25 12 26 90 26 57 0 97 6 138 21 50 18 150 33 260 38 19 0 49 -6 68 -15z"></path><path id="pwnbPmMB6" d="M1025 3275 c-55 -29 -55 -30 -55 -287 l0 -238 24 -15 c14 -10 57 -19 100 -22 90 -7 87 -14 50 118 -31 115 -44 247 -35 346 10 107 -13 134 -84 98z"></path><path id="pKdCLC0ue" d="M1899 2744 c-51 -49 -100 -97 -110 -106 -10 -9 -32 -24 -48 -33 -54 -27 -31 -69 34 -63 32 3 40 9 64 53 23 42 33 51 59 53 27 3 35 11 61 62 17 32 36 68 43 79 10 16 10 23 1 32 -10 10 -33 -8 -104 -77z"></path><path id="p01mD3VfK" d="M4707 1263 c-12 -11 -8 -23 8 -23 8 0 15 7 15 15 0 16 -12 20 -23 8z"></path><path id="p1HuzIzz4i" d="M2915 2846 c-151 -35 -168 -46 -123 -85 30 -26 232 -131 252 -131 15 0 96 98 96 115 0 4 11 23 25 41 27 36 32 63 13 82 -20 20 -116 12 -263 -22z"></path></g></g></svg>