<?xml version="1.0" standalone="no"?>
<!DOCTYPE svg PUBLIC "-//W3C//DTD SVG 20010904//EN"
 "http://www.w3.org/TR/2001/REC-SVG-20010904/DTD/svg10.dtd">
<svg version="1.0" xmlns="http://www.w3.org/2000/svg"
 width="611.000000pt" height="611.000000pt" viewBox="0 0 611.000000 611.000000"
 preserveAspectRatio="xMidYMid meet">

<g transform="translate(0.000000,611.000000) scale(0.100000,-0.100000)"
fill="#000000" stroke="none">
<path d="M2440 6093 c0 -26 23 -68 38 -69 35 -4 36 -5 18 -19 -19 -14 -19 -15
5 -15 22 0 28 -7 40 -47 15 -47 16 -48 53 -45 27 3 36 0 34 -10 -2 -7 2 -14 7
-15 6 -1 9 6 7 17 -2 10 2 21 8 25 6 3 8 11 4 16 -8 13 15 40 28 33 5 -3 14
-18 19 -32 8 -22 12 -24 21 -12 8 12 9 11 4 -4 -4 -11 -2 -22 4 -26 6 -3 12
-30 14 -59 2 -28 5 -53 7 -55 2 -2 18 -6 36 -9 37 -7 50 14 34 56 -10 26 1 47
14 27 5 -8 11 -8 20 0 17 14 -8 117 -36 143 -25 23 -26 85 -1 103 15 12 7 13
-55 14 l-73 0 0 -50 c0 -44 -3 -52 -24 -62 -31 -13 -58 -4 -55 19 3 34 -1 43
-20 43 -10 0 -26 11 -35 25 -14 21 -24 25 -66 25 -41 0 -50 -3 -50 -17z"/>
<path d="M3058 6098 c9 -9 15 -9 24 0 9 9 7 12 -12 12 -19 0 -21 -3 -12 -12z"/>
<path d="M2310 6079 c0 -3 9 -14 20 -24 11 -10 20 -22 20 -26 0 -5 11 -25 25
-45 20 -30 23 -40 13 -52 -10 -12 -8 -18 11 -33 27 -22 40 -17 20 7 -12 14
-10 19 12 38 15 13 28 29 31 36 5 16 -26 50 -46 50 -8 0 -18 12 -23 27 -8 24
-15 28 -46 28 -20 0 -37 -3 -37 -6z"/>
<path d="M3040 6070 c0 -5 5 -10 10 -10 6 0 10 5 10 10 0 6 -4 10 -10 10 -5 0
-10 -4 -10 -10z"/>
<path d="M1020 6010 c0 -5 5 -10 10 -10 6 0 10 5 10 10 0 6 -4 10 -10 10 -5 0
-10 -4 -10 -10z"/>
<path d="M870 5991 c-15 -29 -13 -31 20 -31 18 0 33 6 37 16 3 10 15 14 32 11
14 -2 20 -2 14 0 -7 3 -13 9 -13 14 0 5 -18 9 -40 9 -29 0 -42 -5 -50 -19z"/>
<path d="M2990 5965 c-11 -13 -8 -15 19 -15 36 0 39 5 12 19 -14 8 -22 7 -31
-4z"/>
<path d="M3000 5920 c0 -6 -11 -8 -24 -4 -19 4 -32 -1 -51 -20 -14 -14 -31
-26 -37 -26 -7 0 -7 -4 1 -14 11 -13 5 -45 -9 -56 -4 -3 -10 -26 -13 -52 -6
-41 -4 -49 15 -62 12 -8 25 -13 28 -11 4 3 13 -2 20 -10 7 -8 16 -12 21 -9 16
10 9 32 -11 39 -28 9 -27 55 1 62 11 3 29 24 40 48 11 23 29 52 39 63 27 28
26 62 0 62 -11 0 -20 -5 -20 -10z"/>
<path d="M1380 5868 c-19 -5 -55 -12 -80 -15 -25 -3 -49 -11 -53 -19 -4 -8
-17 -14 -27 -14 -22 0 -27 16 -7 23 9 4 8 8 -3 16 -8 6 -19 11 -25 11 -5 0 -4
-4 4 -9 9 -6 10 -14 5 -22 -5 -8 -9 -18 -9 -24 0 -11 -67 -11 -101 0 -13 4
-29 -1 -45 -14 -43 -35 -16 -44 126 -40 121 4 127 5 145 29 14 19 22 22 30 14
7 -7 28 -10 51 -7 29 4 39 2 39 -8 0 -10 4 -9 17 3 13 14 14 20 4 32 -7 8 -11
23 -9 32 4 22 -15 26 -62 12z"/>
<path d="M615 5862 c-46 -6 -55 -22 -12 -22 23 0 37 5 37 13 0 8 3 9 8 1 10
-15 40 -30 85 -42 30 -8 40 -7 52 5 8 8 25 13 38 12 29 -2 106 12 112 21 6 9
-119 16 -200 11 -16 -1 -43 0 -60 2 -16 1 -43 1 -60 -1z"/>
<path d="M1052 5851 c-11 -6 -10 -9 5 -13 25 -6 54 2 48 13 -8 11 -36 11 -53
0z"/>
<path d="M917 5816 c-3 -8 -23 -18 -44 -21 -21 -3 -46 -10 -55 -16 -12 -6 -18
-6 -18 1 0 5 -9 10 -20 10 -11 0 -20 -6 -20 -14 0 -10 16 -15 58 -18 75 -5
105 1 98 18 -3 9 2 14 13 14 14 0 18 5 14 20 -6 23 -19 26 -26 6z"/>
<path d="M2488 5813 c-10 -2 -18 -12 -17 -21 0 -11 2 -13 6 -4 4 10 8 9 18 -5
10 -14 16 -15 28 -5 12 11 17 8 25 -18 13 -35 47 -41 55 -9 4 15 -1 23 -20 30
-13 5 -31 16 -39 24 -16 15 -25 16 -56 8z"/>
<path d="M2291 5787 c-14 -18 -4 -27 31 -27 21 0 28 5 28 20 0 24 -41 28 -59
7z"/>
<path d="M695 5780 c-8 -13 20 -24 36 -15 8 6 7 10 -2 16 -18 11 -26 11 -34
-1z"/>
<path d="M231 5753 c12 -14 51 -12 56 3 2 6 -12 10 -31 10 -27 0 -33 -3 -25
-13z"/>
<path d="M2630 5751 c-8 -8 -14 -20 -12 -25 2 -5 -3 -13 -10 -18 -10 -6 -10
-10 2 -18 20 -13 69 -13 63 0 -1 3 -8 21 -15 41 -12 33 -15 35 -28 20z"/>
<path d="M1486 5737 c-51 -16 -59 -37 -14 -37 49 0 110 19 105 33 -5 17 -45
18 -91 4z"/>
<path d="M2754 5665 c-7 -18 3 -35 21 -35 12 0 25 21 25 41 0 15 -40 10 -46
-6z"/>
<path d="M4312 5652 c-6 -2 -12 -10 -12 -17 0 -23 179 -202 221 -220 21 -10
45 -28 54 -41 25 -39 83 -405 86 -550 3 -87 -2 -114 -21 -114 -9 0 -50 84 -50
104 0 10 -62 121 -123 221 -27 44 -52 92 -61 115 -4 8 -15 29 -25 45 -37 59
-110 215 -115 247 -3 18 -8 50 -11 71 -4 25 -14 43 -32 54 -24 16 -26 16 -43
-7 -16 -22 -20 -23 -61 -12 -24 7 -59 11 -77 10 -25 -1 -41 7 -65 30 -45 44
-59 41 -36 -7 23 -49 62 -77 125 -92 27 -6 62 -14 79 -18 31 -7 32 -9 75 -145
11 -38 24 -74 28 -80 8 -13 55 -147 101 -291 43 -129 77 -200 122 -250 95
-107 127 -215 128 -437 1 -107 1 -110 31 -146 27 -33 30 -43 30 -112 0 -75 19
-151 45 -180 17 -19 102 -228 122 -300 10 -35 16 -103 17 -190 1 -135 1 -135
-33 -205 -26 -53 -61 -97 -143 -183 -120 -124 -148 -171 -150 -255 -2 -59 11
-97 54 -168 34 -56 36 -101 9 -214 -33 -139 -78 -403 -87 -510 -6 -82 -12 -94
-72 -153 -79 -78 -88 -98 -169 -382 -9 -30 -20 -64 -24 -75 -5 -11 -15 -45
-23 -75 -15 -59 -74 -231 -100 -292 -17 -40 -39 -65 -110 -122 -72 -59 -76
-132 -9 -164 29 -14 42 -31 69 -91 19 -40 34 -81 34 -91 0 -9 9 -25 21 -36 19
-17 35 -19 151 -17 80 2 136 7 144 14 17 14 18 49 2 50 -72 6 -93 10 -111 22
-22 14 -41 65 -53 142 -3 22 -15 66 -26 98 -29 82 -37 62 192 532 76 155 111
216 156 269 80 93 93 116 114 195 9 37 32 95 51 127 19 33 43 76 53 97 32 61
42 47 56 -78 13 -122 10 -164 -21 -287 -28 -111 -24 -225 11 -303 5 -11 11
-33 14 -50 9 -55 45 -186 54 -198 9 -12 27 -90 43 -182 4 -27 11 -64 15 -82 5
-26 -1 -43 -30 -90 -21 -33 -36 -71 -36 -89 0 -52 18 -64 105 -75 90 -11 129
-26 164 -63 26 -28 55 -39 146 -56 33 -6 77 -18 97 -27 34 -14 39 -14 63 1 44
29 28 66 -28 66 -13 0 -44 24 -82 64 -84 89 -96 103 -143 168 -23 31 -46 59
-51 62 -15 9 -58 155 -70 236 -16 109 -32 377 -30 515 1 89 6 134 20 175 24
70 24 155 -1 250 -17 63 -20 109 -20 290 -1 194 -8 288 -36 443 -6 34 0 53 54
160 95 188 114 246 122 367 8 101 19 159 38 183 5 7 19 44 31 84 l22 71 -21
78 c-24 93 -25 120 -4 159 9 17 18 62 21 101 6 70 5 71 -28 102 -19 18 -50 35
-69 38 -77 13 -100 26 -150 86 -43 52 -50 66 -51 106 -3 89 -1 152 4 166 3 7
31 24 61 37 65 27 75 47 52 104 -9 21 -16 46 -16 57 0 11 -18 35 -39 55 -23
20 -43 49 -47 67 -8 40 -32 86 -44 86 -5 0 -38 18 -74 41 -58 36 -65 44 -71
81 -4 22 -20 93 -37 157 -16 64 -36 145 -43 181 -8 36 -19 74 -24 85 -16 38
-49 180 -60 262 -5 45 -15 90 -20 100 -5 10 -12 30 -16 46 -9 44 -28 33 -20
-12 6 -34 3 -41 -15 -51 -34 -18 -123 12 -151 53 -13 17 -30 37 -38 42 -21 13
-63 23 -79 17z"/>
<path d="M2462 5269 c2 -7 10 -15 17 -17 8 -3 12 1 9 9 -2 7 -10 15 -17 17 -8
3 -12 -1 -9 -9z"/>
<path d="M3123 4487 c-57 -16 -76 -37 -100 -109 -44 -130 -36 -236 24 -300 31
-32 26 -51 -22 -79 -31 -19 -35 -26 -35 -63 0 -23 -5 -47 -12 -54 -9 -9 -8
-21 2 -52 7 -22 11 -42 9 -45 -2 -2 -35 -39 -74 -81 -38 -42 -90 -90 -115
-107 -131 -89 -306 -249 -320 -293 -18 -52 -5 -91 33 -103 150 -46 205 -55
352 -56 263 -3 262 -3 285 -27 16 -17 20 -35 20 -84 0 -35 -4 -74 -10 -88 -5
-15 -14 -53 -19 -86 -10 -59 -23 -84 -92 -170 -44 -55 -86 -142 -94 -195 -6
-40 22 -171 45 -215 24 -45 15 -102 -39 -240 -29 -74 -59 -166 -67 -205 -32
-149 -91 -279 -168 -365 -30 -33 -64 -79 -75 -103 -12 -23 -38 -71 -58 -106
-42 -76 -68 -140 -93 -236 -10 -38 -25 -92 -33 -120 -8 -27 -26 -94 -41 -147
-14 -54 -40 -119 -56 -145 -54 -89 -71 -128 -77 -178 -7 -70 7 -81 106 -78 56
2 92 -3 136 -18 37 -13 107 -25 183 -31 l123 -10 40 26 c43 29 46 37 23 60
-11 11 -35 16 -82 16 -63 0 -69 2 -149 56 -104 70 -127 97 -120 145 5 40 144
329 158 329 5 0 9 6 9 14 0 14 36 87 120 241 57 105 74 131 140 203 30 33 63
82 73 108 34 88 107 225 140 262 9 10 17 23 17 28 0 6 6 19 14 29 14 19 15 19
35 1 12 -11 21 -23 21 -28 0 -4 11 -31 25 -60 14 -28 25 -57 25 -63 0 -7 8
-20 19 -29 36 -33 34 -81 -9 -171 -21 -45 -51 -124 -67 -176 -27 -92 -28 -98
-24 -294 8 -390 7 -416 -15 -466 -33 -72 -38 -128 -14 -166 l20 -33 109 0 c66
0 133 -6 168 -15 56 -15 226 -21 257 -9 9 3 16 14 16 25 0 13 -10 20 -37 25
-49 9 -74 21 -212 108 -69 43 -117 80 -122 94 -14 36 -10 199 7 287 8 44 21
116 29 160 35 195 71 296 130 364 63 72 69 89 61 176 -4 42 -11 84 -16 93 -28
52 -55 194 -90 468 -5 40 -20 98 -33 130 -51 123 -51 168 3 279 46 96 73 168
95 254 19 74 17 260 -5 408 l-13 93 26 49 c26 48 34 106 19 143 -4 9 -60 71
-124 138 -133 136 -129 126 -108 275 8 58 15 74 38 92 15 13 34 23 43 23 31 0
40 26 37 112 -1 45 1 90 5 99 5 10 -1 25 -18 43 -14 15 -25 38 -25 52 0 27
-33 99 -50 109 -6 4 -18 24 -26 45 -9 23 -24 40 -37 44 -37 10 -199 5 -244 -7z
m-36 -1069 c68 -94 94 -139 91 -156 -6 -31 -138 -20 -294 24 -28 8 -63 14 -77
14 -32 0 -35 19 -9 43 23 21 222 126 239 127 7 0 29 -24 50 -52z"/>
<path d="M1986 4025 c-20 -14 -39 -25 -42 -25 -3 0 -17 -9 -31 -20 l-26 -20
-14 20 c-10 14 -25 20 -52 20 -33 0 -41 -4 -54 -32 -10 -22 -13 -38 -6 -49 5
-10 7 -24 4 -31 -10 -25 -91 -68 -129 -68 -20 0 -36 -4 -36 -10 0 -25 -41 -50
-82 -50 -65 0 -118 -18 -168 -56 -47 -37 -114 -61 -195 -69 -27 -2 -93 -17
-145 -31 -52 -15 -109 -29 -126 -31 -17 -3 -50 -23 -77 -48 -52 -47 -53 -54
-21 -157 8 -26 14 -67 13 -90 0 -24 4 -72 10 -108 34 -205 39 -224 54 -235 9
-7 25 -45 35 -86 10 -41 26 -89 36 -108 18 -34 18 -34 78 -28 69 6 82 -7 55
-55 -9 -17 -17 -35 -17 -42 0 -7 -19 -53 -42 -102 -38 -80 -42 -97 -42 -164
-1 -63 4 -83 27 -124 15 -27 27 -53 27 -58 0 -5 9 -17 20 -26 17 -14 20 -30
21 -97 1 -100 -6 -185 -21 -250 -6 -27 -17 -110 -25 -182 -14 -138 -22 -162
-80 -238 -72 -93 -117 -195 -130 -296 -4 -30 -13 -78 -22 -107 -8 -29 -13 -58
-10 -65 2 -6 -2 -32 -9 -57 -7 -25 -16 -61 -18 -80 -17 -112 -54 -211 -108
-292 -26 -38 -23 -94 7 -123 21 -22 33 -25 97 -25 50 0 90 -7 128 -21 80 -30
257 -45 305 -25 54 23 43 45 -30 66 -61 17 -235 101 -267 128 -36 31 -23 91
77 362 19 52 64 138 75 145 6 3 10 14 11 23 0 9 15 46 34 82 19 36 41 81 51
100 9 19 36 63 60 97 36 50 49 82 71 172 16 61 32 111 36 111 5 0 23 -15 39
-32 35 -37 36 -45 41 -308 3 -145 6 -170 25 -207 12 -23 22 -56 22 -73 0 -16
4 -30 8 -30 5 0 16 -19 26 -42 10 -24 28 -59 40 -78 11 -19 20 -38 18 -42 -1
-4 4 -27 12 -50 26 -80 38 -180 31 -265 -6 -67 -4 -88 8 -107 16 -24 17 -24
260 -31 242 -7 311 -3 304 18 -2 6 -25 16 -53 23 -118 30 -188 63 -298 141
-64 46 -131 224 -142 377 -2 39 -9 116 -14 170 -14 152 -16 312 -3 328 8 8 8
26 3 53 -15 68 -26 110 -37 130 -6 11 -14 63 -17 115 -8 107 -12 159 -21 244
-5 47 -3 62 11 77 9 10 23 19 30 19 7 0 21 10 31 23 10 12 41 34 70 50 47 25
53 26 61 11 12 -21 23 -4 16 24 -9 33 -31 34 -81 2 -26 -17 -55 -30 -66 -30
-21 0 -18 17 15 88 17 37 24 42 52 42 18 0 41 -8 52 -18 18 -18 19 -18 29 2 9
17 7 24 -10 38 -13 10 -31 15 -43 11 -26 -6 -50 11 -64 46 -7 19 -11 22 -18
12 -4 -8 -15 -11 -23 -8 -8 3 -23 -2 -33 -12 -31 -28 -51 -31 -75 -12 -23 18
-23 18 -4 57 44 93 56 283 34 525 -15 163 -14 165 61 172 106 9 130 41 114
151 -5 34 -8 69 -6 79 5 23 37 22 72 -3 52 -37 288 -159 329 -170 62 -17 117
1 125 40 8 42 -18 115 -63 175 -74 98 -121 171 -121 186 0 24 30 46 100 75
120 49 149 88 150 204 0 41 -4 90 -9 108 -13 43 -86 130 -117 138 -13 3 -24
10 -24 14 0 11 -57 30 -90 30 -15 0 -44 -11 -64 -25z m-171 -495 c34 -54 19
-93 -19 -51 -10 11 -31 25 -47 31 -33 14 -38 34 -11 49 32 19 52 11 77 -29z
m128 -127 c45 -88 44 -100 -5 -54 -23 22 -53 50 -65 61 -32 29 -29 40 11 40
30 0 37 -5 59 -47z m-783 -23 c0 -17 -42 -164 -53 -185 -6 -11 -11 -93 -13
-183 -1 -90 -6 -168 -11 -173 -11 -11 -59 5 -85 28 -16 15 -18 40 -18 254 0
170 3 240 12 245 34 21 168 32 168 14z m406 -1160 c8 0 14 -7 14 -16 0 -23
-54 -14 -58 10 -3 14 0 17 13 12 9 -3 23 -6 31 -6z"/>
<path d="M151 2513 c-28 -11 -53 -45 -42 -56 6 -6 11 -24 11 -39 0 -26 2 -28
44 -28 69 0 76 6 76 59 0 26 -5 52 -12 59 -12 12 -52 15 -77 5z"/>
<path d="M332 2491 c-11 -7 -11 -9 1 -14 16 -6 27 0 27 15 0 10 -11 10 -28 -1z"/>
<path d="M1800 2211 c0 -12 29 -23 41 -15 18 10 9 24 -16 24 -14 0 -25 -4 -25
-9z"/>
<path d="M470 2056 c0 -8 51 -13 56 -5 3 5 -9 9 -25 9 -17 0 -31 -2 -31 -4z"/>
<path d="M410 120 c-13 -9 -13 -12 2 -20 10 -6 14 -18 11 -30 -4 -17 0 -20 25
-20 34 0 52 18 31 31 -8 4 -14 16 -14 26 0 21 -33 28 -55 13z"/>
</g>
</svg>
