<?xml version="1.0" encoding="UTF-8"?> <svg xmlns="http://www.w3.org/2000/svg" width="78" height="293" viewBox="0 0 78 293" fill="none"> <path d="M70.77 283.44H64.925V265.345H70.77V283.44ZM49.56 269.475L75.81 257.54V265.275L52.64 275.285V273.185L75.81 283.23V290.965L49.56 279.03V269.475Z" fill="white"></path> <path d="M59.535 250.364V238.779C59.535 236.562 59.8733 234.742 60.55 233.319C61.2267 231.895 62.1833 230.834 63.42 230.134C64.6333 229.434 66.0567 229.084 67.69 229.084C69.3233 229.084 70.7583 229.469 71.995 230.239C73.2083 231.009 74.1533 232.117 74.83 233.564C75.4833 235.01 75.81 236.749 75.81 238.779V255.859L62.195 253.829L49.56 255.859L49.56 231.114H55.055V251.344L51.73 248.579L62.055 246.934L73.85 248.719L70.525 251.484V239.724C70.525 238.674 70.2567 237.845 69.72 237.239C69.1833 236.609 68.4483 236.294 67.515 236.294C66.5583 236.294 65.8233 236.609 65.31 237.239C64.7733 237.845 64.505 238.674 64.505 239.724V250.364H59.535Z" fill="white"></path> <path d="M76.37 211.171C76.37 214.274 75.7983 217.004 74.655 219.361C73.5117 221.694 71.9133 223.514 69.86 224.821C67.8067 226.104 65.415 226.746 62.685 226.746C59.955 226.746 57.5633 226.104 55.51 224.821C53.4567 223.514 51.8583 221.694 50.715 219.361C49.5717 217.004 49 214.274 49 211.171C49 208.044 49.5717 205.314 50.715 202.981C51.8583 200.648 53.4567 198.828 55.51 197.521C57.5633 196.214 59.955 195.561 62.685 195.561C65.415 195.561 67.8067 196.214 69.86 197.521C71.9133 198.828 73.5117 200.648 74.655 202.981C75.7983 205.314 76.37 208.044 76.37 211.171ZM69.895 211.171C69.895 209.468 69.6033 207.998 69.02 206.761C68.4367 205.524 67.6083 204.579 66.535 203.926C65.4617 203.249 64.1783 202.911 62.685 202.911C61.1917 202.911 59.9083 203.249 58.835 203.926C57.7617 204.579 56.9333 205.524 56.35 206.761C55.7667 207.998 55.475 209.468 55.475 211.171C55.475 212.851 55.7667 214.309 56.35 215.546C56.9333 216.783 57.7617 217.739 58.835 218.416C59.9083 219.093 61.1917 219.431 62.685 219.431C64.1783 219.431 65.4617 219.093 66.535 218.416C67.6083 217.739 68.4367 216.783 69.02 215.546C69.6033 214.309 69.895 212.851 69.895 211.171Z" fill="white"></path> <path d="M49.56 191.821V184.576H75.81V191.821H49.56ZM49.56 171.171V163.891H75.81V171.171H49.56ZM59.255 187.761V168.161H65.695V187.761H59.255Z" fill="white"></path> <path d="M60.06 136.54H65.31L65.31 155.755H60.06V136.54ZM62.685 150.82L73.22 152.535L69.93 155.475L69.93 135.385H75.81L75.81 159.78L62.685 157.785L49.56 159.78V135.56H55.44V155.475L52.15 152.535L62.685 150.82Z" fill="white"></path> <path d="M49.56 92.8266H75.81V99.7216H52.15L52.325 98.1816L75.81 108.332V115.682L52.395 125.867L52.22 124.292H75.81V131.187H49.56V119.987L72.1 110.572V113.372L49.56 104.027V92.8266Z" fill="white"></path> <path d="M60.06 65.4801H65.31V84.6951H60.06V65.4801ZM62.685 79.7601L73.22 81.4751L69.93 84.4151V64.3251H75.81V88.7201L62.685 86.7251L49.56 88.7201V64.5001H55.44V84.4151L52.15 81.4751L62.685 79.7601Z" fill="white"></path> <path d="M49.56 60.127V52.882H75.81V60.127H49.56ZM49.56 39.477V32.197H75.81V39.477H49.56ZM59.255 56.067V36.467H65.695V56.067H59.255Z" fill="white"></path> <path d="M52.745 19.0553V11.7753H75.81V19.0553H52.745ZM49.56 29.0653V1.76532H56V29.0653H49.56Z" fill="white"></path> <path fill-rule="evenodd" clip-rule="evenodd" d="M64.925 278.51V269.977L55.0662 274.236L64.925 278.51ZM57.5839 274.238L63.925 276.987V271.498L57.5839 274.238ZM70.77 281.044L75.81 283.229V290.964L49.56 279.029V269.474L75.81 257.539V265.274L70.77 267.452V281.044ZM71.77 280.388L76.81 282.573V292.518L48.56 279.673V268.831L75.1003 256.764L62.2007 254.84L48.56 257.032L48.56 230.113H56.055V246.877L58.535 246.482V238.778C58.535 236.47 58.886 234.489 59.6469 232.889C60.4011 231.302 61.4906 230.077 62.9237 229.265C64.3118 228.465 65.9121 228.083 67.69 228.083C69.4869 228.083 71.1096 228.509 72.5236 229.389L72.5308 229.394C73.9226 230.277 74.9877 231.54 75.7358 233.14L75.7415 233.152C76.4671 234.758 76.81 236.645 76.81 238.778V265.932L71.77 268.109V280.388ZM63.42 230.133C62.1833 230.833 61.2267 231.895 60.55 233.318C59.8733 234.742 59.535 236.562 59.535 238.778V247.335L55.055 248.049V231.113H49.56L49.56 255.858L62.195 253.828L75.81 255.858V238.778C75.81 236.748 75.4833 235.01 74.83 233.563C74.1533 232.117 73.2083 231.008 71.995 230.238C70.7583 229.468 69.3233 229.083 67.69 229.083C66.0567 229.083 64.6333 229.433 63.42 230.133ZM70.525 248.215V239.723C70.525 238.673 70.2567 237.845 69.72 237.238C69.1833 236.608 68.4483 236.293 67.515 236.293C66.5583 236.293 65.8233 236.608 65.31 237.238C64.7733 237.845 64.505 238.673 64.505 239.723V247.304L70.525 248.215ZM65.505 246.444L69.525 247.052V239.723C69.525 238.843 69.3028 238.276 68.971 237.901L68.9648 237.894L68.9588 237.887C68.6377 237.51 68.1973 237.293 67.515 237.293C66.7996 237.293 66.3741 237.515 66.0852 237.87L66.0724 237.886L66.059 237.901C65.7272 238.276 65.505 238.843 65.505 239.723V246.444ZM75.5547 219.797L75.553 219.8C74.3344 222.287 72.616 224.252 70.3969 225.664L70.39 225.668C68.1581 227.063 65.5779 227.745 62.685 227.745C59.7921 227.745 57.2119 227.063 54.98 225.668L54.9731 225.664C52.754 224.252 51.0356 222.287 49.817 219.8L49.8153 219.797C48.5948 217.281 48 214.397 48 211.17C48 207.922 48.5943 205.036 49.817 202.54C51.0356 200.053 52.754 198.089 54.9731 196.677C57.2059 195.256 59.7887 194.56 62.685 194.56C65.5813 194.56 68.1641 195.256 70.3969 196.677C72.616 198.089 74.3344 200.053 75.553 202.54C76.7757 205.036 77.37 207.922 77.37 211.17C77.37 214.397 76.7752 217.281 75.5547 219.797ZM66.0083 204.776L66.0017 204.771C65.1145 204.212 64.0235 203.91 62.685 203.91C61.3465 203.91 60.2555 204.212 59.3683 204.771L59.3617 204.776L59.3549 204.78C58.4636 205.322 57.7619 206.111 57.2544 207.187C56.7475 208.262 56.475 209.579 56.475 211.17C56.475 212.736 56.7467 214.042 57.2544 215.119C57.7631 216.197 58.4687 217.002 59.3683 217.569C60.2555 218.129 61.3465 218.43 62.685 218.43C64.0235 218.43 65.1145 218.129 66.0017 217.569C66.9014 217.002 67.6069 216.197 68.1156 215.119C68.6233 214.042 68.895 212.736 68.895 211.17C68.895 209.579 68.6225 208.262 68.1156 207.187C67.6081 206.111 66.9064 205.322 66.0151 204.78L66.0083 204.776ZM48.56 192.821V183.576H58.255V172.171H48.56V162.891H76.81V172.171H66.695V183.576H76.81V192.821H48.56ZM65.695 184.576V171.171H75.81V163.891H49.56V171.171H59.255V184.576H49.56V191.821H75.81V184.576H65.695ZM59.06 135.539H66.31L66.31 150.396L68.93 150.823L68.93 134.384H76.81L76.81 160.943L62.685 158.796L48.56 160.943V134.559H56.44V150.823L59.06 150.396V135.539ZM60.06 151.247V136.539H65.31L65.31 151.247L69.93 151.999L69.93 135.384H75.81L75.81 159.779L62.685 157.784L49.56 159.779V135.559H55.44V151.999L60.06 151.247ZM48.56 91.8261H76.81V100.721H60.7227L76.81 107.674V116.337L60.8219 123.291H76.81V132.186H48.56L48.56 119.32L66.1331 111.98L48.56 104.694V91.8261ZM68.7358 111.976L49.56 119.986L49.56 131.186H75.81V124.291H56.0159L75.81 115.681V108.331L55.8882 99.7211H75.81V92.8261H49.56V104.026L68.7358 111.976ZM59.06 64.4796H66.31V79.3366L68.93 79.7631V63.3246H76.81V89.8831L62.685 87.7361L48.56 89.8831V63.4996H56.44V79.7631L59.06 79.3366V64.4796ZM60.06 80.187V65.4796H65.31V80.187L69.93 80.9391V64.3246H75.81V88.7196L62.685 86.7246L49.56 88.7196V64.4996H55.44V80.9391L60.06 80.187ZM48.56 61.1266V51.8815H58.255V40.4765H48.56V31.1965H76.81V40.4765H66.695V51.8815H76.81V61.1266H48.56ZM65.695 52.8815V39.4765H75.81V32.1965H49.56V39.4765H59.255V52.8815H49.56V60.1266H75.81V52.8815H65.695ZM56 11.7749H75.81V19.0549H56V29.0648H49.56V1.76486H56V11.7749ZM57 20.0549V30.0648H48.56L48.56 0.764862H57V10.7749H76.81V20.0549H57ZM74.655 219.36C75.7983 217.004 76.37 214.274 76.37 211.17C76.37 208.044 75.7983 205.314 74.655 202.98C73.5117 200.647 71.9133 198.827 69.86 197.52C67.8067 196.214 65.415 195.56 62.685 195.56C59.955 195.56 57.5633 196.214 55.51 197.52C53.4567 198.827 51.8583 200.647 50.715 202.98C49.5717 205.314 49 208.044 49 211.17C49 214.274 49.5717 217.004 50.715 219.36C51.8583 221.694 53.4567 223.514 55.51 224.82C57.5633 226.104 59.955 226.745 62.685 226.745C65.415 226.745 67.8067 226.104 69.86 224.82C71.9133 223.514 73.5117 221.694 74.655 219.36ZM69.02 206.76C69.6033 207.997 69.895 209.467 69.895 211.17C69.895 212.85 69.6033 214.309 69.02 215.545C68.4367 216.782 67.6083 217.739 66.535 218.415C65.4617 219.092 64.1783 219.43 62.685 219.43C61.1917 219.43 59.9083 219.092 58.835 218.415C57.7617 217.739 56.9333 216.782 56.35 215.545C55.7667 214.309 55.475 212.85 55.475 211.17C55.475 209.467 55.7667 207.997 56.35 206.76C56.9333 205.524 57.7617 204.579 58.835 203.925C59.9083 203.249 61.1917 202.91 62.685 202.91C64.1783 202.91 65.4617 203.249 66.535 203.925C67.6083 204.579 68.4367 205.524 69.02 206.76Z" fill="white"></path> <path fill-rule="evenodd" clip-rule="evenodd" d="M13.479 265.649C13.6106 265.829 13.7376 266.02 13.86 266.219C13.9751 266.41 14.0831 266.612 14.184 266.825C14.2654 266.485 14.3592 266.161 14.4654 265.854C14.4662 265.852 14.4669 265.849 14.4676 265.847C14.5078 265.732 14.5497 265.618 14.5934 265.507C14.6387 265.392 14.6859 265.279 14.735 265.169C15.295 263.839 16.0883 262.848 17.115 262.194C18.1183 261.541 19.285 261.214 20.615 261.214C22.0383 261.214 23.31 261.541 24.43 262.194C25.5267 262.848 26.4017 263.828 27.055 265.134C27.685 266.418 28 268.028 28 269.964V289.354L14.525 287.324L1.75 289.354L1.75 270.664C1.75 268.238 2.32167 266.348 3.465 264.994C4.585 263.641 6.14833 262.964 8.155 262.964C9.25167 262.964 10.3017 263.221 11.305 263.734C12.133 264.158 12.8576 264.796 13.479 265.649ZM2.69778 264.353C4.0359 262.738 5.8997 261.964 8.155 261.964C9.41452 261.964 10.6202 262.261 11.7605 262.844C12.5738 263.26 13.2868 263.843 13.9043 264.572C14.524 263.191 15.4061 262.098 16.5739 261.353C17.7562 260.585 19.1154 260.214 20.615 260.214C22.1976 260.214 23.6463 260.58 24.9339 261.331L24.9418 261.335C26.2255 262.1 27.2232 263.235 27.9494 264.687L27.9527 264.694C28.6695 266.154 29 267.926 29 269.964V290.516L14.5291 288.336L0.75 290.526L0.75 270.664C0.75 268.091 1.35616 265.943 2.69778 264.353ZM22.925 281.666V271.924C22.925 270.874 22.6683 270.058 22.155 269.474C21.6417 268.891 20.93 268.599 20.02 268.599C19.11 268.599 18.3867 268.914 17.85 269.544C17.29 270.174 17.01 271.108 17.01 272.344V280.77L22.925 281.666ZM18.01 279.91L21.925 280.503V271.924C21.925 271.031 21.7079 270.48 21.4043 270.135C21.1139 269.805 20.6968 269.599 20.02 269.599C19.3701 269.599 18.9376 269.81 18.6112 270.193L18.6044 270.201L18.5974 270.209C18.2617 270.586 18.01 271.241 18.01 272.344V279.91ZM12.04 273.324C12.04 272.484 11.795 271.784 11.305 271.224C10.7917 270.641 10.1033 270.349 9.24 270.349C8.54 270.349 7.96833 270.594 7.525 271.084C7.05833 271.574 6.825 272.274 6.825 273.184V281.633L12.04 280.794L12.04 273.324ZM11.04 279.942L11.04 273.324C11.04 272.694 10.8626 272.238 10.5533 271.884C10.2523 271.542 9.85098 271.349 9.24 271.349C8.80365 271.349 8.50796 271.488 8.26654 271.755L8.25796 271.765L8.24914 271.774C8.01344 272.022 7.825 272.441 7.825 273.184V280.459L11.04 279.942ZM29 258.651H0.75L0.75 249.406H8.87L8.87 242.986C8.87 240.659 9.27336 238.604 10.1215 236.852C10.9394 235.092 12.1097 233.712 13.6426 232.759C15.1761 231.783 16.953 231.311 18.935 231.311C20.9186 231.311 22.7048 231.783 24.2587 232.757C25.7951 233.711 26.9676 235.094 27.7863 236.858C28.6089 238.608 29 240.661 29 242.986V258.651ZM23.73 233.606C22.3533 232.743 20.755 232.311 18.935 232.311C17.115 232.311 15.5283 232.743 14.175 233.606C12.8217 234.446 11.7717 235.671 11.025 237.281C10.255 238.868 9.87 240.769 9.87 242.986L9.87 250.406H1.75L1.75 257.651H28V242.986C28 240.769 27.6267 238.868 26.88 237.281C26.1333 235.671 25.0833 234.446 23.73 233.606ZM22.295 250.406V243.441C22.295 242.251 21.9917 241.329 21.385 240.676C20.7783 239.999 19.9617 239.661 18.935 239.661C17.885 239.661 17.0683 239.999 16.485 240.676C15.9017 241.329 15.61 242.251 15.61 243.441L15.61 250.406H22.295ZM16.61 249.406H21.295V243.441C21.295 242.417 21.0363 241.77 20.6522 241.356L20.6463 241.35L20.6404 241.344C20.2491 240.907 19.7184 240.661 18.935 240.661C18.1196 240.661 17.6019 240.912 17.2424 241.329L17.2367 241.335L17.2309 241.342C16.8621 241.755 16.61 242.408 16.61 243.441L16.61 249.406ZM0.75 231.141L0.75 221.896H29V231.141H0.75ZM11.725 210.284V201.728C11.725 199.511 12.0633 197.691 12.74 196.268C13.4167 194.844 14.3733 193.783 15.61 193.083C16.8233 192.383 18.2467 192.033 19.88 192.033C21.5133 192.033 22.9483 192.418 24.185 193.188C25.3983 193.958 26.3433 195.066 27.02 196.513C27.6733 197.959 28 199.698 28 201.728L28 218.808L14.385 216.778L1.75 218.808L1.75 194.063H7.245L7.245 210.998L11.725 210.284ZM8.245 209.826L8.245 193.063H0.75L0.75 219.981L14.3907 217.789L29 219.968L29 201.728C29 199.594 28.657 197.708 27.9314 196.101L27.9258 196.089C27.1777 194.489 26.1126 193.226 24.7208 192.343L24.7136 192.339C23.2996 191.458 21.6769 191.033 19.88 191.033C18.102 191.033 16.5015 191.415 15.1133 192.215C13.6804 193.027 12.591 194.252 11.8369 195.838C11.076 197.439 10.725 199.419 10.725 201.728V209.431L8.245 209.826ZM16.695 210.253L22.715 211.164L22.715 202.673C22.715 201.623 22.4467 200.794 21.91 200.188C21.3733 199.558 20.6383 199.243 19.705 199.243C18.7483 199.243 18.0133 199.558 17.5 200.188C16.9633 200.794 16.695 201.623 16.695 202.673V210.253ZM21.715 210.002L21.715 202.673C21.715 201.793 21.4928 201.225 21.161 200.85L21.1548 200.843L21.1488 200.836C20.8277 200.459 20.3873 200.243 19.705 200.243C18.9896 200.243 18.5641 200.465 18.2752 200.819L18.2624 200.835L18.249 200.85C17.9172 201.225 17.695 201.793 17.695 202.673L17.695 209.393L21.715 210.002ZM11.25 165.105H18.5V179.962L21.12 180.388V163.95H29V190.508L14.875 188.361L0.75 190.508L0.75 164.125H8.63V180.388L11.25 179.962V165.105ZM12.25 180.812V166.105H17.5V180.812L22.12 181.564V164.95H28V189.345L14.875 187.35L1.75 189.345L1.75 165.125H7.63L7.63 181.564L12.25 180.812ZM1.75 146.017C1.75 143.823 2.12333 141.933 2.87 140.347C3.61667 138.737 4.67833 137.512 6.055 136.672C7.40833 135.832 8.995 135.412 10.815 135.412C12.6117 135.412 14.1983 135.832 15.575 136.672C16.9283 137.512 17.9783 138.737 18.725 140.347C19.4717 141.933 19.845 143.823 19.845 146.017L19.845 153.507H28V160.752H1.75L1.75 146.017ZM14.035 153.507V146.472C14.035 145.305 13.755 144.395 13.195 143.742C12.6117 143.088 11.8183 142.762 10.815 142.762C9.78833 142.762 8.995 143.088 8.435 143.742C7.85167 144.395 7.56 145.305 7.56 146.472V153.507H14.035ZM8.56 152.507H13.035V146.472C13.035 145.464 12.7955 144.816 12.4421 144.4C12.0776 143.996 11.5745 143.762 10.815 143.762C10.0183 143.762 9.52733 144.004 9.19426 144.392L9.18768 144.4L9.18094 144.408C8.80911 144.824 8.56 145.468 8.56 146.472V152.507ZM20.845 152.507H29V161.752H0.75L0.75 146.017C0.75 143.713 1.1417 141.672 1.96375 139.924C2.78423 138.156 3.97075 136.773 5.53067 135.82C7.06326 134.87 8.83713 134.412 10.815 134.412C12.7739 134.412 14.5449 134.872 16.0959 135.818L16.1024 135.822C17.6394 136.776 18.8122 138.159 19.6312 139.924C20.4533 141.672 20.845 143.713 20.845 146.017L20.845 152.507ZM29 133.246H0.75L0.75 124.106H17.5202L0.75 112.756L0.75 101.741H29V110.916H11.8631L29 122.51V133.246ZM8.60046 109.916H28V102.741H1.75L1.75 112.226L20.7821 125.106H1.75L1.75 132.246H28V123.041L8.60046 109.916ZM8.19 82.3217H28L28 89.6017H8.19L8.19 99.6118H1.75L1.75 72.3118H8.19L8.19 82.3217ZM9.19 90.6017V100.612H0.75L0.75 71.3118H9.19L9.19 81.3217H29L29 90.6017H9.19ZM11.25 45.7492H18.5V60.6061L21.12 61.0326V44.5942H29V71.1526L14.875 69.0057L0.75 71.1526L0.75 44.7692H8.63V61.0326L11.25 60.6061L11.25 45.7492ZM12.25 61.4565V46.7492H17.5V61.4565L22.12 62.2086V45.5942H28V69.9892L14.875 67.9942L1.75 69.9892L1.75 45.7692H7.63L7.63 62.2086L12.25 61.4565ZM64.115 278.51V269.977L54.2562 274.236L64.115 278.51ZM56.7739 274.238L63.115 276.987V271.498L56.7739 274.238ZM69.96 281.044L75 283.229V290.964L48.75 279.029V269.474L75 257.539V265.274L69.96 267.452V281.044ZM70.96 268.109V280.388L76 282.573V292.518L47.75 279.673V268.831L74.2903 256.764L61.3907 254.84L47.75 257.032L47.75 230.113H55.245L55.245 246.877L57.725 246.482V238.778C57.725 236.47 58.076 234.489 58.8369 232.889C59.5911 231.302 60.6805 230.077 62.1136 229.265C63.5017 228.465 65.1021 228.083 66.88 228.083C68.6769 228.083 70.2996 228.509 71.7136 229.389L71.7208 229.394C73.1126 230.277 74.1777 231.54 74.9258 233.14L74.9314 233.152C75.6571 234.758 76 236.645 76 238.778V265.932L70.96 268.109ZM62.61 230.133C61.3733 230.833 60.4167 231.895 59.74 233.318C59.0633 234.742 58.725 236.562 58.725 238.778V247.335L54.245 248.049L54.245 231.113H48.75L48.75 255.858L61.385 253.828L75 255.858V238.778C75 236.748 74.6733 235.01 74.02 233.563C73.3433 232.117 72.3983 231.008 71.185 230.238C69.9483 229.468 68.5133 229.083 66.88 229.083C65.2467 229.083 63.8233 229.433 62.61 230.133ZM69.715 248.215V239.723C69.715 238.673 69.4467 237.845 68.91 237.238C68.3733 236.608 67.6383 236.293 66.705 236.293C65.7483 236.293 65.0133 236.608 64.5 237.238C63.9633 237.845 63.695 238.673 63.695 239.723V247.304L69.715 248.215ZM64.695 246.444L68.715 247.052V239.723C68.715 238.843 68.4928 238.276 68.161 237.901L68.1548 237.894L68.1488 237.887C67.8277 237.51 67.3873 237.293 66.705 237.293C65.9896 237.293 65.5641 237.515 65.2752 237.87L65.2624 237.886L65.249 237.901C64.9172 238.276 64.695 238.843 64.695 239.723V246.444ZM74.7447 219.797L74.743 219.8C73.5244 222.287 71.806 224.252 69.5869 225.664L69.58 225.668C67.3481 227.063 64.7679 227.745 61.875 227.745C58.9821 227.745 56.4019 227.063 54.17 225.668L54.1631 225.664C51.944 224.252 50.2256 222.287 49.007 219.8L49.0053 219.797C47.7849 217.281 47.19 214.397 47.19 211.17C47.19 207.922 47.7843 205.036 49.007 202.54C50.2256 200.053 51.944 198.089 54.1631 196.677C56.3959 195.256 58.9787 194.56 61.875 194.56C64.7713 194.56 67.3541 195.256 69.5869 196.677C71.806 198.089 73.5244 200.053 74.743 202.54C75.9657 205.036 76.56 207.922 76.56 211.17C76.56 214.397 75.9652 217.281 74.7447 219.797ZM65.1983 204.776L65.1917 204.771C64.3045 204.212 63.2135 203.91 61.875 203.91C60.5365 203.91 59.4455 204.212 58.5583 204.771L58.5517 204.776L58.5449 204.78C57.6536 205.322 56.9519 206.111 56.4444 207.187C55.9375 208.262 55.665 209.579 55.665 211.17C55.665 212.736 55.9367 214.042 56.4444 215.119C56.9531 216.197 57.6586 217.002 58.5583 217.569C59.4455 218.129 60.5365 218.43 61.875 218.43C63.2135 218.43 64.3045 218.129 65.1917 217.569C66.0913 217.002 66.7969 216.197 67.3056 215.119C67.8133 214.042 68.085 212.736 68.085 211.17C68.085 209.579 67.8125 208.262 67.3056 207.187C66.7981 206.111 66.0964 205.322 65.2051 204.78L65.1983 204.776ZM47.75 192.821V183.576H57.445V172.171H47.75V162.891H76V172.171H65.885L65.885 183.576H76V192.821H47.75ZM64.885 184.576L64.885 171.171H75V163.891H48.75V171.171H58.445V184.576H48.75V191.821H75V184.576H64.885ZM58.25 135.539H65.5V150.396L68.12 150.823V134.384H76V160.943L61.875 158.796L47.75 160.943V134.559H55.63V150.823L58.25 150.396V135.539ZM59.25 151.247V136.539H64.5V151.247L69.12 151.999V135.384H75V159.779L61.875 157.784L48.75 159.779V135.559H54.63V151.999L59.25 151.247ZM47.75 91.8261H76V100.721H59.9127L76 107.674V116.337L60.0119 123.291H76V132.186H47.75V119.32L65.3231 111.98L47.75 104.694V91.8261ZM67.9258 111.976L48.75 119.986V131.186H75V124.291H55.2059L75 115.681V108.331L55.0782 99.7211H75V92.8261H48.75V104.026L67.9258 111.976ZM58.25 64.4796H65.5V79.3366L68.12 79.7631V63.3246H76V89.8831L61.875 87.7361L47.75 89.8831V63.4996H55.63V79.7631L58.25 79.3366V64.4796ZM59.25 80.187V65.4796H64.5V80.187L69.12 80.9391V64.3246H75V88.7196L61.875 86.7246L48.75 88.7196V64.4996H54.63V80.9391L59.25 80.187ZM47.75 61.1266V51.8815H57.445V40.4765H47.75V31.1965H76V40.4765H65.885V51.8815H76V61.1266H47.75ZM64.885 52.8815V39.4765H75V32.1965H48.75V39.4765H58.445V52.8815H48.75V60.1266H75V52.8815H64.885ZM55.19 11.7749H75V19.0549H55.19V29.0648H48.75L48.75 1.76486H55.19L55.19 11.7749ZM56.19 20.0549V30.0648H47.75L47.75 0.764862H56.19L56.19 10.7749H76V20.0549H56.19ZM1.75 230.141H28V222.896H1.75L1.75 230.141ZM69.05 224.82C71.1033 223.514 72.7017 221.694 73.845 219.36C74.9883 217.004 75.56 214.274 75.56 211.17C75.56 208.044 74.9883 205.314 73.845 202.98C72.7017 200.647 71.1033 198.827 69.05 197.52C66.9967 196.214 64.605 195.56 61.875 195.56C59.145 195.56 56.7533 196.214 54.7 197.52C52.6467 198.827 51.0483 200.647 49.905 202.98C48.7617 205.314 48.19 208.044 48.19 211.17C48.19 214.274 48.7617 217.004 49.905 219.36C51.0483 221.694 52.6467 223.514 54.7 224.82C56.7533 226.104 59.145 226.745 61.875 226.745C64.605 226.745 66.9967 226.104 69.05 224.82ZM68.21 206.76C68.7933 207.997 69.085 209.467 69.085 211.17C69.085 212.85 68.7933 214.309 68.21 215.545C67.6267 216.782 66.7983 217.739 65.725 218.415C64.6517 219.092 63.3683 219.43 61.875 219.43C60.3817 219.43 59.0983 219.092 58.025 218.415C56.9517 217.739 56.1233 216.782 55.54 215.545C54.9567 214.309 54.665 212.85 54.665 211.17C54.665 209.467 54.9567 207.997 55.54 206.76C56.1233 205.524 56.9517 204.579 58.025 203.925C59.0983 203.249 60.3817 202.91 61.875 202.91C63.3683 202.91 64.6517 203.249 65.725 203.925C66.7983 204.579 67.6267 205.524 68.21 206.76Z" fill="white"></path> </svg> 